<?xml version="1.0" encoding="utf-8"?><svg viewBox="0 0 17 17" xmlns="http://www.w3.org/2000/svg" xmlns:xlink="http://www.w3.org/1999/xlink"><style>:root>svg{display:none}:root>svg:target{display:block}</style><svg fill="none" viewBox="0 0 17 17" id="arrow" xmlns="http://www.w3.org/2000/svg"><path d="M.5 16l15-15m0 0v15m0-15H.5" stroke="#848484" stroke-width="1.3"/></svg><svg fill="none" viewBox="0 0 15 15" id="arrow-back" xmlns="http://www.w3.org/2000/svg"><path d="M14 14L1 1m0 0v13M1 1h13" stroke="#848484" stroke-width="1.3"/></svg><svg fill="none" viewBox="0 0 8 3" id="arrow-down" xmlns="http://www.w3.org/2000/svg"><path d="M4 3L.536 0h6.928L4 3z" fill="#090909"/></svg><svg fill="none" viewBox="0 0 11 8" id="check-mark" xmlns="http://www.w3.org/2000/svg"><path d="M1 3.478L4.375 7 10 1" stroke="#4D4D4D"/></svg><svg fill="none" viewBox="0 0 14 16" id="mark" xmlns="http://www.w3.org/2000/svg"><g clip-path="url(#eclip0_206_10235)" fill="#848484"><path d="M7.724.04C4.09-.369 1 2.465 1 6.008c0 1.387.451 2.619 1.458 3.988l3.907 5.648a.826.826 0 001.358-.002l2.584-3.71 1.451-2.21a5.975 5.975 0 001.231-4.574C12.617 2.49 10.403.34 7.724.039zm3.531 9.322l-1.462 2.224-2.58 3.706a.205.205 0 01-.34.001L2.96 9.638c-.929-1.263-1.343-2.383-1.343-3.63C1.618 3.038 4.043.62 7.024.62c.207 0 .418.012.63.036 2.402.27 4.387 2.197 4.72 4.58a5.383 5.383 0 01-1.119 4.127z"/><path d="M6.992 2.914A3.1 3.1 0 003.896 6.01a3.1 3.1 0 003.096 3.096 3.1 3.1 0 003.096-3.096 3.1 3.1 0 00-3.096-3.096zm0 5.572A2.48 2.48 0 014.516 6.01a2.48 2.48 0 012.476-2.477A2.48 2.48 0 019.47 6.01a2.48 2.48 0 01-2.477 2.476z"/></g><defs><clipPath id="eclip0_206_10235"><path fill="#fff" d="M0 0h14v16H0z"/></clipPath></defs></svg></svg>