<svg width="18" height="18" viewBox="0 0 18 18" fill="none" xmlns="http://www.w3.org/2000/svg">
<g clip-path="url(#clip0_1004_9988)">
<path opacity="0.2" fill-rule="evenodd" clip-rule="evenodd" d="M9 16C12.866 16 16 12.866 16 9C16 5.13401 12.866 2 9 2C5.13401 2 2 5.13401 2 9C2 12.866 5.13401 16 9 16ZM9 17.75C13.8325 17.75 17.75 13.8325 17.75 9C17.75 4.16751 13.8325 0.25 9 0.25C4.16751 0.25 0.25 4.16751 0.25 9C0.25 13.8325 4.16751 17.75 9 17.75Z" fill="#C6C6C6"/>
<path fill-rule="evenodd" clip-rule="evenodd" d="M9 2C5.13401 2 2 5.13401 2 9C2 12.866 5.13401 16 9 16C9.4832 16 9.875 16.3918 9.875 16.875C9.875 17.3582 9.4832 17.75 9 17.75C4.16751 17.75 0.25 13.8325 0.25 9C0.25 4.16751 4.16751 0.25 9 0.25C13.8325 0.25 17.75 4.16751 17.75 9C17.75 9.4832 17.3582 9.875 16.875 9.875C16.3918 9.875 16 9.4832 16 9C16 5.13401 12.866 2 9 2Z" fill="url(#paint0_linear_1004_9988)"/>
</g>
<defs>
<linearGradient id="paint0_linear_1004_9988" x1="9" y1="9" x2="9" y2="16" gradientUnits="userSpaceOnUse">
<stop stop-color="#848484"/>
<stop offset="1" stop-color="white" stop-opacity="0"/>
</linearGradient>
<clipPath id="clip0_1004_9988">
<rect width="18" height="18" fill="white"/>
</clipPath>
</defs>
</svg>
