<svg width="14" height="16" viewBox="0 0 14 16" fill="none" xmlns="http://www.w3.org/2000/svg">
<g clip-path="url(#clip0_206_10235)">
<path d="M7.72421 0.039058C4.09043 -0.368341 0.999023 2.4655 0.999023 6.00888C0.999023 7.39578 1.45038 8.62788 2.45712 9.99744L6.36394 15.6447C6.51811 15.867 6.77134 16.0001 7.04253 16.0001C7.31557 16.0001 7.57066 15.8651 7.72235 15.6428L10.3061 11.9323L11.7573 9.72316C12.782 8.42666 13.2192 6.80201 12.9882 5.14889C12.6167 2.49027 10.4026 0.341202 7.72421 0.039058ZM11.2552 9.36157L9.79278 11.5856L7.21217 15.2918C7.15707 15.3723 7.07472 15.3815 7.04253 15.3815C7.01033 15.3815 6.92799 15.3729 6.87288 15.293L2.9611 9.63833C2.03238 8.37465 1.61817 7.25461 1.61817 6.00888C1.61817 3.03697 4.04338 0.6192 7.02395 0.6192C7.23137 0.6192 7.44188 0.630964 7.65425 0.65511C10.0565 0.925678 12.0415 2.85185 12.3746 5.23495C12.582 6.71905 12.1901 8.17652 11.2552 9.36157Z" fill="#848484"/>
<path d="M6.99223 2.91406C5.28523 2.91406 3.89648 4.30281 3.89648 6.0098C3.89648 7.71679 5.28523 9.10554 6.99223 9.10554C8.69922 9.10554 10.088 7.71679 10.088 6.0098C10.088 4.30281 8.6986 2.91406 6.99223 2.91406ZM6.99223 8.4864C5.62638 8.4864 4.51563 7.37564 4.51563 6.0098C4.51563 4.64396 5.62638 3.53321 6.99223 3.53321C8.35807 3.53321 9.46882 4.64396 9.46882 6.0098C9.46882 7.37564 8.35745 8.4864 6.99223 8.4864Z" fill="#848484"/>
</g>
<defs>
<clipPath id="clip0_206_10235">
<rect width="14" height="16" fill="white"/>
</clipPath>
</defs>
</svg>
