<svg width="138" height="101" viewBox="0 0 138 101" fill="none" xmlns="http://www.w3.org/2000/svg">
<path d="M7.81828 0.436172H17.1498L39.0914 54.0292H39.848L61.7896 0.436172H71.1211V65H63.8072V15.9466H63.1767L43.0005 65H35.9388L15.7627 15.9466H15.1321V65H7.81828V0.436172ZM78.3634 0.436172H86.0556V51.255H86.6861L121.994 0.436172H129.561V65H121.742V14.3073H121.112L85.9295 65H78.3634V0.436172Z" fill="#383838"/>
<path d="M8.07666 96.0515V76.3484H19.9678V78.465H10.4626V84.6222H15.4653C16.8763 84.6222 18.0661 84.8531 19.0346 85.3149C20.0095 85.7767 20.7471 86.4277 21.2473 87.2679C21.754 88.1081 22.0074 89.099 22.0074 90.2407C22.0074 91.3823 21.754 92.3893 21.2473 93.2616C20.7471 94.1338 20.0095 94.8169 19.0346 95.3108C18.0661 95.8046 16.8763 96.0515 15.4653 96.0515H8.07666ZM10.4626 93.9735H15.4653C16.3632 93.9735 17.1233 93.7939 17.7454 93.4347C18.374 93.0691 18.8486 92.6009 19.1693 92.0301C19.4964 91.4529 19.6599 90.8436 19.6599 90.2022C19.6599 89.2594 19.2975 88.448 18.5728 87.7682C17.848 87.0819 16.8122 86.7388 15.4653 86.7388H10.4626V93.9735ZM25.935 96.0515V76.3484H32.5925C34.1382 76.3484 35.4017 76.6274 36.383 77.1854C37.3707 77.737 38.1019 78.4842 38.5765 79.4271C39.0512 80.3699 39.2885 81.4217 39.2885 82.5826C39.2885 83.7435 39.0512 84.7986 38.5765 85.7478C38.1083 86.6971 37.3836 87.4539 36.4023 88.0183C35.421 88.5763 34.1639 88.8553 32.631 88.8553H27.8591V86.7388H32.554C33.6123 86.7388 34.4621 86.556 35.1035 86.1904C35.7449 85.8248 36.2099 85.3309 36.4985 84.7088C36.7935 84.0802 36.941 83.3715 36.941 82.5826C36.941 81.7937 36.7935 81.0882 36.4985 80.4661C36.2099 79.844 35.7416 79.3565 35.0939 79.0037C34.4461 78.6446 33.5866 78.465 32.5155 78.465H28.3209V96.0515H25.935ZM43.1319 76.3484H45.4793V91.8569H45.6718L56.4469 76.3484H58.7558V96.0515H56.3699V80.5815H56.1775L45.4409 96.0515H43.1319V76.3484ZM75.4212 76.3484V78.465H65.916V96.0515H63.5301V76.3484H75.4212ZM77.6195 96.0515H75.1182L82.3529 76.3484H84.8158L92.0505 96.0515H89.5492L83.6613 79.4655H83.5074L77.6195 96.0515ZM78.5431 88.355H88.6256V90.4716H78.5431V88.355ZM93.4263 100.823V93.935H94.6962C95.1323 93.5373 95.5428 92.9761 95.9276 92.2514C96.3189 91.5202 96.6492 90.5453 96.9186 89.3267C97.1944 88.1017 97.3772 86.5463 97.467 84.6607L97.8903 76.3484H109.589V93.935H111.859V100.785H109.589V96.0515H95.6968V100.823H93.4263ZM97.5439 93.935H107.319V78.465H100.045L99.7374 84.6607C99.6605 86.0974 99.5258 87.3994 99.3334 88.5667C99.1409 89.7276 98.894 90.757 98.5926 91.6549C98.2911 92.5464 97.9416 93.3065 97.5439 93.935ZM116.273 96.0515H113.772L121.006 76.3484H123.469L130.704 96.0515H128.203L122.315 79.4655H122.161L116.273 96.0515ZM117.197 88.355H127.279V90.4716H117.197V88.355Z" fill="#383838"/>
</svg>
