<svg width="1167" height="252" viewBox="0 0 1167 252" fill="none" xmlns="http://www.w3.org/2000/svg">
<g clip-path="url(#clip0_209_16519)">
<path d="M5.72308 5.86047H22.2459L118.102 223.802H119.804L215.66 5.86047H232.183V244.802H217.604V40.5117H216.146L126.121 244.802H111.785L21.7599 40.5117H20.302V244.802H5.72308V5.86047Z" fill="black"/>
<path d="M217.924 5.86047H232.901V218.551H234.35L392.204 5.86047H406.938V244.802H391.841V32.3448H390.392L232.78 244.802H217.924V5.86047Z" fill="black"/>
<path d="M458.919 212.097V246.14H455.811V212.097H458.919ZM470.314 230.182V246.14H467.355V220.608H470.23V224.614H470.496C471.095 223.306 472.025 222.259 473.289 221.472C474.564 220.674 476.137 220.276 478.01 220.276C479.727 220.276 481.235 220.635 482.531 221.356C483.838 222.065 484.852 223.112 485.573 224.498C486.304 225.883 486.67 227.584 486.67 229.601V246.14H483.711V229.784C483.711 227.689 483.124 226.032 481.949 224.813C480.786 223.594 479.223 222.985 477.262 222.985C475.921 222.985 474.729 223.273 473.688 223.849C472.646 224.425 471.821 225.256 471.211 226.342C470.613 227.417 470.314 228.697 470.314 230.182ZM504.518 220.608V223.184H492.334V220.608H504.518ZM496.141 214.491H499.116V239.474C499.116 240.538 499.299 241.375 499.665 241.984C500.03 242.582 500.507 243.009 501.094 243.264C501.681 243.508 502.307 243.63 502.972 243.63C503.36 243.63 503.692 243.607 503.97 243.563C504.246 243.508 504.49 243.453 504.701 243.397L505.332 246.073C505.044 246.184 504.69 246.284 504.269 246.372C503.848 246.472 503.327 246.522 502.706 246.522C501.62 246.522 500.573 246.284 499.564 245.807C498.567 245.331 497.747 244.621 497.105 243.679C496.462 242.738 496.141 241.568 496.141 240.173V214.491ZM521.286 246.672C518.903 246.672 516.842 246.117 515.102 245.009C513.362 243.89 512.016 242.344 511.063 240.372C510.121 238.388 509.65 236.105 509.65 233.523C509.65 230.952 510.121 228.67 511.063 226.675C512.016 224.669 513.329 223.101 515.003 221.971C516.687 220.829 518.631 220.259 520.837 220.259C522.222 220.259 523.557 220.514 524.843 221.023C526.128 221.522 527.281 222.292 528.3 223.334C529.331 224.365 530.145 225.667 530.744 227.24C531.342 228.803 531.641 230.653 531.641 232.792V234.255H511.694V231.645H528.616C528.616 230.005 528.284 228.531 527.618 227.224C526.965 225.905 526.051 224.863 524.876 224.098C523.712 223.334 522.366 222.952 520.837 222.952C519.219 222.952 517.795 223.384 516.565 224.248C515.335 225.112 514.371 226.254 513.673 227.672C512.985 229.091 512.637 230.642 512.626 232.327V233.889C512.626 235.917 512.974 237.69 513.673 239.208C514.382 240.715 515.385 241.884 516.681 242.715C517.978 243.546 519.513 243.962 521.286 243.962C522.493 243.962 523.552 243.774 524.46 243.397C525.38 243.02 526.15 242.516 526.771 241.884C527.403 241.241 527.879 240.538 528.2 239.773L531.01 240.688C530.622 241.762 529.985 242.754 529.098 243.663C528.223 244.571 527.126 245.303 525.807 245.857C524.499 246.4 522.992 246.672 521.286 246.672ZM538.161 246.14V220.608H541.037V224.531H541.253C541.763 223.245 542.649 222.209 543.913 221.423C545.187 220.624 546.627 220.226 548.234 220.226C548.478 220.226 548.749 220.231 549.049 220.242C549.348 220.253 549.597 220.265 549.797 220.276V223.284C549.664 223.262 549.431 223.229 549.099 223.184C548.766 223.14 548.406 223.118 548.018 223.118C546.688 223.118 545.503 223.4 544.461 223.965C543.43 224.52 542.616 225.29 542.018 226.276C541.419 227.263 541.12 228.387 541.12 229.651V246.14H538.161ZM554.879 246.14V220.608H557.854V246.14H554.879ZM556.391 216.22C555.782 216.22 555.262 216.015 554.829 215.605C554.397 215.183 554.181 214.68 554.181 214.092C554.181 213.504 554.397 213.006 554.829 212.596C555.262 212.175 555.782 211.964 556.391 211.964C557.001 211.964 557.522 212.175 557.954 212.596C558.386 213.006 558.603 213.504 558.603 214.092C558.603 214.68 558.386 215.183 557.954 215.605C557.522 216.015 557.001 216.22 556.391 216.22ZM575.603 246.672C573.397 246.672 571.447 246.112 569.752 244.993C568.067 243.873 566.749 242.327 565.796 240.355C564.843 238.372 564.366 236.083 564.366 233.49C564.366 230.875 564.843 228.575 565.796 226.592C566.749 224.597 568.067 223.046 569.752 221.938C571.447 220.818 573.397 220.259 575.603 220.259C577.808 220.259 579.753 220.818 581.437 221.938C583.122 223.057 584.44 224.608 585.393 226.592C586.357 228.575 586.838 230.875 586.838 233.49C586.838 236.083 586.363 238.372 585.41 240.355C584.457 242.327 583.133 243.873 581.437 244.993C579.753 246.112 577.808 246.672 575.603 246.672ZM575.603 243.962C577.376 243.962 578.878 243.485 580.108 242.533C581.338 241.58 582.268 240.311 582.9 238.726C583.542 237.141 583.864 235.396 583.864 233.49C583.864 231.584 583.542 229.833 582.9 228.238C582.268 226.642 581.338 225.362 580.108 224.398C578.878 223.434 577.376 222.952 575.603 222.952C573.841 222.952 572.34 223.434 571.098 224.398C569.868 225.362 568.932 226.642 568.289 228.238C567.658 229.833 567.342 231.584 567.342 233.49C567.342 235.396 567.658 237.141 568.289 238.726C568.932 240.311 569.868 241.58 571.098 242.533C572.328 243.485 573.83 243.962 575.603 243.962ZM593.337 246.14V220.608H596.209V224.531H596.426C596.935 223.245 597.82 222.209 599.086 221.423C600.358 220.624 601.8 220.226 603.405 220.226C603.651 220.226 603.921 220.231 604.22 220.242C604.519 220.253 604.771 220.265 604.97 220.276V223.284C604.835 223.262 604.607 223.229 604.273 223.184C603.939 223.14 603.581 223.118 603.194 223.118C601.864 223.118 600.674 223.4 599.637 223.965C598.606 224.52 597.791 225.29 597.193 226.276C596.59 227.263 596.291 228.387 596.291 229.651V246.14H593.337ZM623.8 212.097H627.392L639.74 241.751H640.039L652.387 212.097H655.98V246.14H653.055V218.663H652.786L641.305 246.14H638.474L626.988 218.663H626.724V246.14H623.8V212.097ZM664.448 246.14V220.608H667.425V246.14H664.448ZM665.96 216.22C665.35 216.22 664.829 216.015 664.401 215.605C663.967 215.183 663.751 214.68 663.751 214.092C663.751 213.504 663.967 213.006 664.401 212.596C664.829 212.175 665.35 211.964 665.96 211.964C666.569 211.964 667.091 212.175 667.525 212.596C667.958 213.006 668.169 213.504 668.169 214.092C668.169 214.68 667.958 215.183 667.525 215.605C667.091 216.015 666.569 216.22 665.96 216.22ZM678.208 230.182V246.14H675.249V220.608H678.126V224.614H678.39C678.988 223.306 679.92 222.259 681.185 221.472C682.457 220.674 684.034 220.276 685.903 220.276C687.62 220.276 689.126 220.635 690.427 221.356C691.734 222.065 692.748 223.112 693.469 224.498C694.196 225.883 694.565 227.584 694.565 229.601V246.14H691.605V229.784C691.605 227.689 691.019 226.032 689.841 224.813C688.681 223.594 687.116 222.985 685.153 222.985C683.817 222.985 682.621 223.273 681.584 223.849C680.541 224.425 679.714 225.256 679.105 226.342C678.507 227.417 678.208 228.697 678.208 230.182ZM702.389 246.14V220.608H705.366V246.14H702.389ZM703.901 216.22C703.291 216.22 702.77 216.015 702.342 215.605C701.908 215.183 701.691 214.68 701.691 214.092C701.691 213.504 701.908 213.006 702.342 212.596C702.77 212.175 703.291 211.964 703.901 211.964C704.51 211.964 705.032 212.175 705.465 212.596C705.893 213.006 706.11 213.504 706.11 214.092C706.11 214.68 705.893 215.183 705.465 215.605C705.032 216.015 704.51 216.22 703.901 216.22ZM713.189 246.14V220.608H716.067V224.531H716.331C716.84 223.212 717.69 222.176 718.874 221.423C720.07 220.658 721.505 220.276 723.182 220.276C724.94 220.276 726.387 220.691 727.518 221.522C728.661 222.342 729.511 223.473 730.079 224.913H730.296C730.87 223.495 731.808 222.37 733.103 221.539C734.41 220.696 735.992 220.276 737.856 220.276C740.23 220.276 742.099 221.023 743.476 222.52C744.848 224.005 745.533 226.177 745.533 229.035V246.14H742.58V229.035C742.58 227.019 742.064 225.506 741.032 224.498C740.001 223.489 738.641 222.985 736.959 222.985C735.008 222.985 733.508 223.583 732.453 224.78C731.404 225.977 730.876 227.495 730.876 229.335V246.14H727.852V228.769C727.852 227.041 727.366 225.644 726.405 224.581C725.438 223.517 724.084 222.985 722.332 222.985C721.154 222.985 720.099 223.273 719.155 223.849C718.224 224.425 717.491 225.229 716.946 226.26C716.413 227.279 716.149 228.453 716.149 229.784V246.14H713.189ZM760.501 246.722C758.96 246.722 757.553 246.422 756.276 245.824C755.004 245.214 753.99 244.339 753.234 243.198C752.484 242.045 752.103 240.649 752.103 239.009C752.103 237.746 752.343 236.681 752.818 235.817C753.298 234.953 753.972 234.243 754.846 233.69C755.725 233.135 756.762 232.698 757.957 232.376C759.153 232.055 760.472 231.806 761.913 231.629C763.343 231.451 764.551 231.296 765.535 231.163C766.531 231.03 767.293 230.819 767.815 230.531C768.336 230.243 768.594 229.778 768.594 229.135V228.537C768.594 226.797 768.073 225.428 767.035 224.431C766.004 223.423 764.515 222.918 762.576 222.918C760.735 222.918 759.235 223.323 758.075 224.132C756.92 224.941 756.111 225.894 755.648 226.991L752.835 225.977C753.416 224.581 754.213 223.467 755.232 222.636C756.252 221.794 757.389 221.19 758.655 220.824C759.921 220.447 761.198 220.259 762.493 220.259C763.472 220.259 764.486 220.386 765.535 220.641C766.602 220.896 767.586 221.339 768.495 221.971C769.403 222.592 770.141 223.461 770.704 224.581C771.272 225.689 771.554 227.096 771.554 228.803V246.14H768.594V242.101H768.413C768.055 242.854 767.534 243.586 766.83 244.295C766.133 245.004 765.26 245.586 764.205 246.04C763.156 246.494 761.919 246.722 760.501 246.722ZM760.899 244.012C762.47 244.012 763.836 243.663 764.99 242.965C766.139 242.266 767.03 241.341 767.645 240.189C768.278 239.026 768.594 237.746 768.594 236.349V232.659C768.372 232.87 768.002 233.058 767.481 233.224C766.971 233.39 766.379 233.54 765.705 233.673C765.037 233.795 764.375 233.9 763.707 233.989C763.044 234.078 762.447 234.155 761.913 234.222C760.472 234.399 759.241 234.676 758.221 235.053C757.201 235.43 756.422 235.95 755.877 236.615C755.338 237.269 755.062 238.111 755.062 239.142C755.062 240.693 755.619 241.895 756.727 242.749C757.834 243.591 759.223 244.012 760.899 244.012ZM782.384 212.097V246.14H779.424V212.097H782.384ZM790.243 246.14V220.608H793.22V246.14H790.243ZM791.761 216.22C791.151 216.22 790.63 216.015 790.196 215.605C789.762 215.183 789.545 214.68 789.545 214.092C789.545 213.504 789.762 213.006 790.196 212.596C790.63 212.175 791.151 211.964 791.761 211.964C792.37 211.964 792.886 212.175 793.32 212.596C793.753 213.006 793.97 213.504 793.97 214.092C793.97 214.68 793.753 215.183 793.32 215.605C792.886 216.015 792.37 216.22 791.761 216.22ZM818.197 226.209L815.49 226.974C815.226 226.209 814.845 225.517 814.359 224.897C813.872 224.276 813.233 223.783 812.448 223.417C811.675 223.051 810.708 222.868 809.559 222.868C807.83 222.868 806.412 223.279 805.298 224.098C804.191 224.919 803.64 225.977 803.64 227.274C803.64 228.371 804.015 229.263 804.771 229.95C805.533 230.626 806.711 231.163 808.293 231.562L812.149 232.509C814.288 233.03 815.888 233.856 816.955 234.986C818.027 236.117 818.566 237.535 818.566 239.241C818.566 240.682 818.168 241.962 817.371 243.081C816.568 244.2 815.454 245.081 814.03 245.724C812.606 246.356 810.965 246.672 809.09 246.672C806.599 246.672 804.542 246.112 802.925 244.993C801.307 243.862 800.27 242.234 799.813 240.106L802.655 239.408C803.024 240.926 803.739 242.072 804.8 242.848C805.879 243.624 807.291 244.012 809.043 244.012C811.001 244.012 812.571 243.575 813.743 242.699C814.921 241.812 815.507 240.704 815.507 239.374C815.507 238.344 815.161 237.48 814.476 236.781C813.79 236.072 812.747 235.552 811.352 235.219L807.18 234.222C804.964 233.69 803.323 232.848 802.257 231.695C801.196 230.543 800.663 229.113 800.663 227.407C800.663 225.999 801.044 224.764 801.811 223.7C802.573 222.625 803.628 221.782 804.97 221.173C806.312 220.563 807.836 220.259 809.559 220.259C811.897 220.259 813.761 220.791 815.156 221.854C816.568 222.908 817.582 224.359 818.197 226.209ZM835.099 220.608V223.184H822.915V220.608H835.099ZM826.724 214.491H829.695V239.474C829.695 240.538 829.883 241.375 830.246 241.984C830.61 242.582 831.09 243.009 831.676 243.264C832.262 243.508 832.889 243.63 833.552 243.63C833.944 243.63 834.273 243.607 834.554 243.563C834.829 243.508 835.075 243.453 835.28 243.397L835.913 246.073C835.626 246.184 835.275 246.284 834.853 246.372C834.431 246.472 833.909 246.522 833.288 246.522C832.204 246.522 831.155 246.284 830.147 245.807C829.15 245.331 828.33 244.621 827.685 243.679C827.046 242.738 826.724 241.568 826.724 240.173V214.491ZM858.517 226.209L855.81 226.974C855.54 226.209 855.165 225.517 854.679 224.897C854.192 224.276 853.553 223.783 852.768 223.417C851.989 223.051 851.028 222.868 849.873 222.868C848.144 222.868 846.726 223.279 845.618 224.098C844.511 224.919 843.954 225.977 843.954 227.274C843.954 228.371 844.335 229.263 845.085 229.95C845.853 230.626 847.025 231.163 848.607 231.562L852.469 232.509C854.602 233.03 856.208 233.856 857.269 234.986C858.347 236.117 858.881 237.535 858.881 239.241C858.881 240.682 858.482 241.962 857.685 243.081C856.888 244.2 855.775 245.081 854.345 245.724C852.926 246.356 851.28 246.672 849.41 246.672C846.913 246.672 844.856 246.112 843.239 244.993C841.622 243.862 840.584 242.234 840.133 240.106L842.975 239.408C843.339 240.926 844.054 242.072 845.12 242.848C846.193 243.624 847.605 244.012 849.357 244.012C851.321 244.012 852.885 243.575 854.063 242.699C855.235 241.812 855.821 240.704 855.821 239.374C855.821 238.344 855.482 237.48 854.796 236.781C854.104 236.072 853.067 235.552 851.666 235.219L847.494 234.222C845.278 233.69 843.637 232.848 842.577 231.695C841.51 230.543 840.983 229.113 840.983 227.407C840.983 225.999 841.364 224.764 842.125 223.7C842.893 222.625 843.942 221.782 845.284 221.173C846.626 220.563 848.156 220.259 849.873 220.259C852.211 220.259 854.081 220.791 855.476 221.854C856.882 222.908 857.896 224.359 858.517 226.209Z" fill="black"/>
<path d="M451.256 162.628H1166.23" stroke="black" stroke-width="2.93023"/>
<path d="M472.858 35.8413L484.866 9.0571H488.466L474.335 41.0233H471.38L457.416 9.0571H460.954L472.858 35.8413ZM459.851 9.0571V41.0233H456.146V9.0571H459.851ZM485.865 41.0233V9.0571H489.569V41.0233H485.865ZM503.117 35.758L519.995 9.0571H524.428V41.0233H520.724V14.3224L503.908 41.0233H499.413V9.0571H503.117V35.758ZM555.791 23.3129V26.8092H536.998V23.3129H555.791ZM537.914 9.0571V41.0233H534.209V9.0571H537.914ZM558.517 9.0571V41.0233H554.813V9.0571H558.517ZM572.081 35.758L588.959 9.0571H593.39V41.0233H589.686V14.3224L572.872 41.0233H568.376V9.0571H572.081V35.758ZM619.885 35.8413L631.893 9.0571H635.491L621.362 41.0233H618.408L604.442 9.0571H607.982L619.885 35.8413ZM606.88 9.0571V41.0233H603.171V9.0571H606.88ZM632.889 41.0233V9.0571H636.599V41.0233H632.889ZM655.37 41.7517C653.442 41.7517 651.678 41.3771 650.084 40.6279C648.484 39.8648 647.218 38.7687 646.274 37.3397C645.331 35.8968 644.856 34.1486 644.856 32.0952C644.856 30.5136 645.155 29.1816 645.753 28.0995C646.351 27.0173 647.194 26.1293 648.29 25.4356C649.386 24.7419 650.687 24.1939 652.182 23.7915C653.682 23.3892 655.335 23.077 657.14 22.855C658.927 22.633 660.439 22.4388 661.676 22.2723C662.924 22.1058 663.873 21.8422 664.524 21.4815C665.174 21.1208 665.503 20.538 665.503 19.7333V18.9841C665.503 16.8059 664.852 15.0924 663.545 13.8438C662.256 12.5812 660.398 11.9499 657.972 11.9499C655.669 11.9499 653.787 12.4563 652.328 13.4692C650.887 14.482 649.873 15.6751 649.292 17.0487L645.776 15.7792C646.497 14.0311 647.493 12.6367 648.771 11.5961C650.049 10.5417 651.478 9.7855 653.055 9.32768C654.637 8.85597 656.243 8.62009 657.866 8.62009C659.085 8.62009 660.357 8.77967 661.676 9.09877C663.006 9.41787 664.243 9.9728 665.379 10.7637C666.516 11.5406 667.437 12.6298 668.146 14.0311C668.855 15.4185 669.206 17.1805 669.206 19.3171V41.0233H665.503V35.9661H665.274C664.829 36.9096 664.172 37.8253 663.299 38.7132C662.42 39.6012 661.324 40.3296 660.011 40.8984C658.693 41.4673 657.146 41.7517 655.37 41.7517ZM655.868 38.3595C657.837 38.3595 659.542 37.9224 660.984 37.0483C662.432 36.1743 663.539 35.0158 664.319 33.5728C665.11 32.116 665.503 30.5136 665.503 28.7654V24.1453C665.227 24.4089 664.758 24.6448 664.108 24.8529C663.469 25.061 662.731 25.2483 661.881 25.4148C661.049 25.5674 660.216 25.6992 659.384 25.8102C658.552 25.9212 657.802 26.0183 657.14 26.1016C655.335 26.3236 653.793 26.6704 652.516 27.1421C651.238 27.6139 650.259 28.2659 649.58 29.0984C648.9 29.917 648.56 30.9714 648.56 32.2617C648.56 34.2041 649.257 35.7095 650.646 36.7778C652.029 37.8322 653.77 38.3595 655.868 38.3595ZM675.917 41.0233V37.527H676.919C678.056 37.527 678.97 37.3189 679.667 36.9027C680.371 36.4726 680.921 35.7511 681.308 34.7383C681.695 33.7255 681.988 32.345 682.181 30.5968C682.375 28.8487 682.527 26.6565 682.639 24.0205L683.33 9.0571H703.642V41.0233H699.915V12.5535H686.846L686.243 25.2691C686.114 27.8636 685.909 30.1459 685.616 32.116C685.34 34.0862 684.883 35.7303 684.244 37.0483C683.617 38.3664 682.744 39.3584 681.619 40.0244C680.511 40.6903 679.052 41.0233 677.253 41.0233H675.917ZM717.163 35.758L734.041 9.0571H738.471V41.0233H734.767V14.3224L717.954 41.0233H713.459V9.0571H717.163V35.758ZM760.741 41.6893C757.881 41.6893 755.39 40.9747 753.269 39.5457C751.159 38.1167 749.524 36.1604 748.358 33.6769C747.192 31.1934 746.611 28.3631 746.611 25.1859C746.611 21.9809 747.197 19.1298 748.381 16.6325C749.571 14.1351 751.224 12.1789 753.333 10.7637C755.443 9.33459 757.887 8.62009 760.677 8.62009C762.816 8.62009 764.75 9.0363 766.484 9.86878C768.219 10.6874 769.649 11.8459 770.774 13.3443C771.911 14.8288 772.626 16.5631 772.913 18.5471H769.168C768.781 16.7435 767.844 15.2034 766.361 13.927C764.89 12.6367 763.015 11.9915 760.741 11.9915C758.702 11.9915 756.897 12.5465 755.332 13.6565C753.761 14.7525 752.536 16.2856 751.646 18.2557C750.772 20.212 750.333 22.4804 750.333 25.061C750.333 27.6555 750.766 29.9517 751.628 31.9496C752.484 33.9336 753.691 35.4875 755.244 36.6113C756.814 37.7351 758.643 38.297 760.741 38.297C762.153 38.297 763.448 38.0334 764.609 37.5062C765.793 36.9651 766.777 36.202 767.568 35.2169C768.371 34.2319 768.91 33.0595 769.192 31.6998H772.937C772.661 33.6283 771.97 35.3487 770.874 36.861C769.795 38.3595 768.383 39.5388 766.648 40.399C764.931 41.2592 762.962 41.6893 760.741 41.6893ZM778.234 12.5535V9.0571H803.206V12.5535H792.634V41.0233H788.93V12.5535H778.234ZM814.159 21.3982H823.524C827.117 21.3982 829.889 22.2723 831.846 24.0205C833.803 25.7686 834.782 28.1341 834.782 31.1171C834.782 33.1011 834.337 34.8354 833.452 36.3199C832.579 37.8045 831.301 38.963 829.619 39.7954C827.943 40.614 825.909 41.0233 823.524 41.0233H811.076V9.0571H814.804V37.527H823.524C825.786 37.527 827.603 36.9859 828.974 35.9037C830.363 34.8215 831.055 33.2815 831.055 31.2836C831.055 29.2441 830.363 27.6694 828.974 26.5594C827.603 25.4495 825.786 24.8945 823.524 24.8945H814.159V21.3982ZM840.174 41.0233V9.0571H843.878V41.0233H840.174ZM873.918 35.758L890.796 9.0571H895.227V41.0233H891.523V14.3224L874.709 41.0233H870.214V9.0571H873.918V35.758ZM926.592 23.3129V26.8092H907.798V23.3129H926.592ZM908.712 9.0571V41.0233H905.008V9.0571H908.712ZM929.317 9.0571V41.0233H925.613V9.0571H929.317ZM934.703 12.5535V9.0571H959.674V12.5535H949.102V41.0233H945.398V12.5535H934.703ZM978.768 41.6893C975.785 41.6893 973.206 40.9956 971.026 39.6081C968.852 38.2068 967.164 36.2714 965.969 33.8018C964.791 31.3183 964.205 28.4602 964.205 25.2275C964.205 22.0087 964.791 19.1506 965.969 16.6533C967.164 14.1421 968.811 12.1789 970.903 10.7637C973.013 9.33459 975.445 8.62009 978.211 8.62009C979.94 8.62009 981.616 8.93919 983.222 9.57739C984.833 10.2018 986.275 11.166 987.553 12.4702C988.842 13.7605 989.862 15.3907 990.612 17.3609C991.362 19.3171 991.737 21.6341 991.737 24.3118V26.1432H966.76V22.8758H987.945C987.945 20.8225 987.529 18.9772 986.697 17.34C985.883 15.689 984.734 14.3848 983.263 13.4275C981.809 12.4702 980.122 11.9915 978.211 11.9915C976.183 11.9915 974.402 12.5326 972.86 13.6148C971.319 14.697 970.112 16.1261 969.239 17.9019C968.377 19.6778 967.944 21.6202 967.926 23.7291V25.6854C967.926 28.2243 968.366 30.4442 969.239 32.345C970.13 34.2319 971.384 35.6956 973.007 36.7362C974.63 37.7767 976.553 38.297 978.768 38.297C980.28 38.297 981.61 38.0612 982.747 37.5894C983.896 37.1177 984.863 36.4864 985.636 35.6956C986.427 34.8909 987.025 34.0099 987.43 33.0526L990.946 34.1972C990.459 35.543 989.662 36.7847 988.549 37.9224C987.453 39.0601 986.082 39.9758 984.429 40.6695C982.794 41.3494 980.907 41.6893 978.768 41.6893ZM999.901 53.0106V9.0571H1003.5V15.1549H1003.94C1004.38 14.1975 1004.99 13.2194 1005.77 12.2205C1006.55 11.2077 1007.57 10.3544 1008.85 9.66067C1010.14 8.96697 1011.76 8.62009 1013.72 8.62009C1016.35 8.62009 1018.65 9.31379 1020.63 10.7012C1022.61 12.0748 1024.15 14.0033 1025.25 16.4868C1026.35 18.9564 1026.91 21.8353 1026.91 25.1234C1026.91 28.4255 1026.35 31.3183 1025.25 33.8018C1024.15 36.2853 1022.61 38.2207 1020.63 39.6081C1018.65 40.9956 1016.37 41.6893 1013.76 41.6893C1011.83 41.6893 1010.22 41.3424 1008.91 40.6487C1007.62 39.955 1006.57 39.1017 1005.77 38.0889C1004.98 37.0622 1004.37 36.0633 1003.94 35.0921H1003.6V53.0106H999.901ZM1003.56 25.061C1003.56 27.6416 1003.94 29.9308 1004.71 31.9287C1005.49 33.9128 1006.59 35.4736 1008.03 36.6113C1009.49 37.7351 1011.25 38.297 1013.32 38.297C1015.44 38.297 1017.24 37.7143 1018.69 36.5489C1020.16 35.3696 1021.28 33.781 1022.04 31.7831C1022.82 29.7852 1023.21 27.5445 1023.21 25.061C1023.21 22.6053 1022.83 20.3924 1022.06 18.4222C1021.31 16.4521 1020.2 14.8913 1018.74 13.7397C1017.27 12.5743 1015.46 11.9915 1013.32 11.9915C1011.24 11.9915 1009.47 12.5535 1008.02 13.6773C1006.56 14.7872 1005.45 16.3272 1004.68 18.2974C1003.94 20.2536 1003.56 22.5082 1003.56 25.061ZM1038.12 21.3982H1047.46C1051.06 21.3982 1053.83 22.2723 1055.79 24.0205C1057.74 25.7686 1058.72 28.1341 1058.72 31.1171C1058.72 33.1011 1058.28 34.8354 1057.41 36.3199C1056.54 37.8045 1055.26 38.963 1053.58 39.7954C1051.9 40.614 1049.86 41.0233 1047.46 41.0233H1035.04V9.0571H1038.74V37.527H1047.46C1049.73 37.527 1051.55 36.9859 1052.94 35.9037C1054.33 34.8215 1055.02 33.2815 1055.02 31.2836C1055.02 29.2441 1054.33 27.6694 1052.94 26.5594C1051.55 25.4495 1049.73 24.8945 1047.46 24.8945H1038.12V21.3982ZM1079.78 41.6893C1076.8 41.6893 1074.22 40.9956 1072.04 39.6081C1069.86 38.2068 1068.18 36.2714 1066.99 33.8018C1065.81 31.3183 1065.22 28.4602 1065.22 25.2275C1065.22 22.0087 1065.81 19.1506 1066.99 16.6533C1068.18 14.1421 1069.82 12.1789 1071.91 10.7637C1074.02 9.33459 1076.46 8.62009 1079.22 8.62009C1080.96 8.62009 1082.63 8.93919 1084.24 9.57739C1085.84 10.2018 1087.29 11.166 1088.56 12.4702C1089.86 13.7605 1090.88 15.3907 1091.62 17.3609C1092.37 19.3171 1092.75 21.6341 1092.75 24.3118V26.1432H1067.78V22.8758H1088.96C1088.96 20.8225 1088.55 18.9772 1087.71 17.34C1086.89 15.689 1085.75 14.3848 1084.28 13.4275C1082.82 12.4702 1081.14 11.9915 1079.22 11.9915C1077.19 11.9915 1075.41 12.5326 1073.87 13.6148C1072.33 14.697 1071.12 16.1261 1070.25 17.9019C1069.39 19.6778 1068.95 21.6202 1068.94 23.7291V25.6854C1068.94 28.2243 1069.38 30.4442 1070.25 32.345C1071.14 34.2319 1072.39 35.6956 1074.02 36.7362C1075.64 37.7767 1077.56 38.297 1079.78 38.297C1081.3 38.297 1082.62 38.0612 1083.76 37.5894C1084.91 37.1177 1085.87 36.4864 1086.65 35.6956C1087.44 34.8909 1088.04 34.0099 1088.44 33.0526L1091.96 34.1972C1091.47 35.543 1090.67 36.7847 1089.57 37.9224C1088.47 39.0601 1087.09 39.9758 1085.45 40.6695C1083.8 41.3494 1081.92 41.6893 1079.78 41.6893ZM1100.91 53.0106V9.0571H1104.51V15.1549H1104.95C1105.39 14.1975 1106 13.2194 1106.78 12.2205C1107.56 11.2077 1108.58 10.3544 1109.86 9.66067C1111.15 8.96697 1112.77 8.62009 1114.73 8.62009C1117.37 8.62009 1119.67 9.31379 1121.64 10.7012C1123.63 12.0748 1125.16 14.0033 1126.26 16.4868C1127.37 18.9564 1127.92 21.8353 1127.92 25.1234C1127.92 28.4255 1127.37 31.3183 1126.26 33.8018C1125.16 36.2853 1123.63 38.2207 1121.64 39.6081C1119.67 40.9956 1117.38 41.6893 1114.77 41.6893C1112.84 41.6893 1111.23 41.3424 1109.93 40.6487C1108.64 39.955 1107.59 39.1017 1106.78 38.0889C1105.99 37.0622 1105.38 36.0633 1104.95 35.0921H1104.62V53.0106H1100.91ZM1104.57 25.061C1104.57 27.6416 1104.96 29.9308 1105.72 31.9287C1106.5 33.9128 1107.6 35.4736 1109.05 36.6113C1110.51 37.7351 1112.27 38.297 1114.34 38.297C1116.46 38.297 1118.25 37.7143 1119.71 36.5489C1121.18 35.3696 1122.29 33.781 1123.05 31.7831C1123.83 29.7852 1124.22 27.5445 1124.22 25.061C1124.22 22.6053 1123.84 20.3924 1123.08 18.4222C1122.33 16.4521 1121.22 14.8913 1119.75 13.7397C1118.28 12.5743 1116.47 11.9915 1114.34 11.9915C1112.25 11.9915 1110.49 12.5535 1109.03 13.6773C1107.57 14.7872 1106.46 16.3272 1105.7 18.2974C1104.95 20.2536 1104.57 22.5082 1104.57 25.061ZM1144.98 41.7517C1143.05 41.7517 1141.29 41.3771 1139.7 40.6279C1138.1 39.8648 1136.83 38.7687 1135.89 37.3397C1134.94 35.8968 1134.47 34.1486 1134.47 32.0952C1134.47 30.5136 1134.77 29.1816 1135.37 28.0995C1135.96 27.0173 1136.81 26.1293 1137.9 25.4356C1139 24.7419 1140.3 24.1939 1141.79 23.7915C1143.29 23.3892 1144.95 23.077 1146.75 22.855C1148.54 22.633 1150.05 22.4388 1151.29 22.2723C1152.54 22.1058 1153.49 21.8422 1154.14 21.4815C1154.79 21.1208 1155.12 20.538 1155.12 19.7333V18.9841C1155.12 16.8059 1154.46 15.0924 1153.16 13.8438C1151.87 12.5812 1150.01 11.9499 1147.58 11.9499C1145.28 11.9499 1143.4 12.4563 1141.94 13.4692C1140.5 14.482 1139.49 15.6751 1138.91 17.0487L1135.39 15.7792C1136.11 14.0311 1137.11 12.6367 1138.38 11.5961C1139.66 10.5417 1141.09 9.7855 1142.67 9.32768C1144.25 8.85597 1145.86 8.62009 1147.48 8.62009C1148.7 8.62009 1149.97 8.77967 1151.29 9.09877C1152.62 9.41787 1153.86 9.9728 1154.99 10.7637C1156.13 11.5406 1157.05 12.6298 1157.76 14.0311C1158.47 15.4185 1158.82 17.1805 1158.82 19.3171V41.0233H1155.12V35.9661H1154.89C1154.44 36.9096 1153.78 37.8253 1152.91 38.7132C1152.03 39.6012 1150.94 40.3296 1149.62 40.8984C1148.31 41.4673 1146.76 41.7517 1144.98 41.7517ZM1145.48 38.3595C1147.45 38.3595 1149.16 37.9224 1150.6 37.0483C1152.04 36.1743 1153.15 35.0158 1153.93 33.5728C1154.72 32.116 1155.12 30.5136 1155.12 28.7654V24.1453C1154.84 24.4089 1154.37 24.6448 1153.72 24.8529C1153.08 25.061 1152.34 25.2483 1151.49 25.4148C1150.66 25.5674 1149.83 25.6992 1149 25.8102C1148.16 25.9212 1147.41 26.0183 1146.75 26.1016C1144.95 26.3236 1143.41 26.6704 1142.13 27.1421C1140.85 27.6139 1139.87 28.2659 1139.19 29.0984C1138.51 29.917 1138.17 30.9714 1138.17 32.2617C1138.17 34.2041 1138.87 35.7095 1140.25 36.7778C1141.64 37.8322 1143.38 38.3595 1145.48 38.3595Z" fill="#090909"/>
<path d="M479.164 73.2558L481.099 75.6076C480.225 76.4539 479.177 77.0364 477.957 77.3558C476.749 77.6611 475.397 77.834 473.898 77.8762C472.414 77.9178 470.812 77.9799 469.091 78.0631C466.621 78.188 464.589 78.8332 462.993 79.9989C461.398 81.1504 460.184 82.8154 459.352 84.9931C458.533 87.158 458.019 89.8011 457.811 92.9223H458.227C459.296 90.744 460.801 89.0861 462.744 87.9486C464.7 86.8111 466.851 86.242 469.195 86.242C471.651 86.242 473.857 86.8456 475.813 88.0529C477.783 89.2461 479.337 91.0007 480.475 93.3179C481.627 95.6211 482.202 98.4306 482.202 101.746C482.202 105.021 481.627 107.872 480.475 110.3C479.323 112.714 477.714 114.58 475.647 115.898C473.58 117.216 471.159 117.875 468.384 117.875C465.595 117.875 463.153 117.223 461.058 115.919C458.977 114.601 457.361 112.666 456.209 110.113C455.071 107.546 454.503 104.39 454.503 100.644V97.2931C454.503 89.8427 455.682 84.2371 458.041 80.4771C460.399 76.7176 464.027 74.7543 468.925 74.5879C470.506 74.5322 471.942 74.5181 473.233 74.5463C474.523 74.5597 475.661 74.4976 476.646 74.3587C477.631 74.2064 478.47 73.8383 479.164 73.2558ZM468.384 114.483C470.451 114.483 472.24 113.963 473.753 112.922C475.265 111.867 476.431 110.383 477.249 108.468C478.082 106.554 478.498 104.313 478.498 101.746C478.498 99.1936 478.075 97.0153 477.228 95.2114C476.396 93.4082 475.23 92.0275 473.732 91.0704C472.233 90.1128 470.479 89.634 468.467 89.634C466.885 89.634 465.463 89.9394 464.2 90.55C462.952 91.1466 461.883 91.9999 460.995 93.1099C460.108 94.2199 459.428 95.5238 458.956 97.0223C458.484 98.5209 458.242 100.165 458.227 101.954C458.227 105.825 459.129 108.884 460.933 111.133C462.751 113.366 465.234 114.483 468.384 114.483ZM490.313 129.197V85.2434H493.914V91.3406H494.351C494.795 90.3836 495.405 89.4055 496.182 88.4063C496.959 87.3936 497.986 86.5403 499.262 85.8464C500.553 85.1531 502.176 84.8062 504.132 84.8062C506.769 84.8062 509.072 85.5001 511.041 86.8872C513.026 88.2609 514.566 90.189 515.662 92.6727C516.772 95.1423 517.327 98.0215 517.327 101.309C517.327 104.612 516.772 107.504 515.662 109.988C514.566 112.471 513.026 114.407 511.041 115.794C509.072 117.182 506.782 117.875 504.174 117.875C502.245 117.875 500.629 117.529 499.325 116.835C498.035 116.141 496.987 115.288 496.182 114.275C495.392 113.248 494.781 112.249 494.351 111.278H494.018V129.197H490.313ZM493.976 101.247C493.976 103.828 494.358 106.117 495.121 108.115C495.898 110.099 497.008 111.659 498.451 112.798C499.908 113.921 501.669 114.483 503.737 114.483C505.86 114.483 507.649 113.9 509.106 112.735C510.577 111.556 511.694 109.967 512.457 107.969C513.234 105.971 513.622 103.73 513.622 101.247C513.622 98.791 513.241 96.5781 512.478 94.6084C511.728 92.6381 510.618 91.0775 509.148 89.9259C507.677 88.7602 505.874 88.1777 503.737 88.1777C501.656 88.1777 499.887 88.7391 498.43 89.8632C496.973 90.9732 495.863 92.5133 495.1 94.4836C494.351 96.4398 493.976 98.6943 493.976 101.247ZM529.158 111.944L546.036 85.2434H550.469V117.209H546.764V90.5084L529.948 117.209H525.453V85.2434H529.158V111.944ZM579.251 85.2434V88.7391H563.954V117.209H560.25V85.2434H579.251ZM594.304 117.938C592.376 117.938 590.612 117.563 589.018 116.814C587.418 116.051 586.152 114.955 585.208 113.525C584.264 112.083 583.793 110.334 583.793 108.281C583.793 106.7 584.091 105.368 584.688 104.285C585.284 103.203 586.129 102.316 587.224 101.622C588.32 100.928 589.621 100.38 591.116 99.9778C592.616 99.5751 594.269 99.2628 596.074 99.0413C597.861 98.8191 599.373 98.6246 600.61 98.4581C601.858 98.2917 602.807 98.028 603.458 97.6676C604.114 97.3066 604.437 96.724 604.437 95.9194V95.1698C604.437 92.9921 603.786 91.2785 602.479 90.0296C601.19 88.7673 599.332 88.1361 596.906 88.1361C594.603 88.1361 592.722 88.6424 591.262 89.6551C589.821 90.6678 588.807 91.861 588.227 93.2347L584.709 91.9653C585.43 90.2172 586.427 88.8229 587.705 87.7821C588.983 86.7278 590.413 85.9713 591.995 85.5135C593.571 85.0418 595.177 84.8062 596.801 84.8062C598.019 84.8062 599.291 84.9656 600.61 85.285C601.94 85.6038 603.177 86.1588 604.314 86.9494C605.451 87.7265 606.371 88.8159 607.08 90.2172C607.789 91.6043 608.14 93.3666 608.14 95.5033V117.209H604.437V112.152H604.208C603.763 113.096 603.106 114.011 602.233 114.899C601.36 115.787 600.264 116.515 598.945 117.084C597.627 117.654 596.08 117.938 594.304 117.938ZM594.802 114.546C596.771 114.546 598.477 114.109 599.924 113.234C601.366 112.36 602.473 111.202 603.253 109.759C604.044 108.302 604.437 106.7 604.437 104.952V100.331C604.161 100.595 603.692 100.831 603.042 101.039C602.403 101.247 601.665 101.434 600.815 101.601C599.983 101.753 599.151 101.885 598.318 101.996C597.486 102.107 596.736 102.204 596.074 102.287C594.269 102.509 592.727 102.856 591.45 103.328C590.172 103.8 589.199 104.452 588.52 105.284C587.84 106.103 587.5 107.157 587.5 108.448C587.5 110.39 588.191 111.896 589.58 112.964C590.963 114.018 592.704 114.546 594.802 114.546ZM614.206 126.304V113.713H616.978C617.67 112.936 618.273 112.097 618.789 111.195C619.299 110.293 619.744 109.267 620.119 108.115C620.506 106.949 620.834 105.597 621.098 104.057C621.362 102.502 621.584 100.692 621.76 98.6246L622.926 85.2434H641.844V113.713H646.591V126.304H642.887V117.209H617.933V126.304H614.206ZM621.244 113.713H638.14V88.7391H626.384L625.423 98.6246C625.095 101.983 624.62 104.91 624.011 107.407C623.401 109.905 622.475 112.006 621.244 113.713ZM662.578 117.938C660.65 117.938 658.886 117.563 657.292 116.814C655.698 116.051 654.426 114.955 653.483 113.525C652.539 112.083 652.071 110.334 652.071 108.281C652.071 106.7 652.369 105.368 652.967 104.285C653.559 103.203 654.409 102.316 655.505 101.622C656.601 100.928 657.896 100.38 659.396 99.9778C660.891 99.5751 662.543 99.2628 664.348 99.0413C666.136 98.8191 667.648 98.6246 668.884 98.4581C670.133 98.2917 671.082 98.028 671.738 97.6676C672.389 97.3066 672.717 96.724 672.717 95.9194V95.1698C672.717 92.9921 672.061 91.2785 670.76 90.0296C669.47 88.7673 667.607 88.1361 665.18 88.1361C662.877 88.1361 660.996 88.6424 659.543 89.6551C658.095 90.6678 657.087 91.861 656.501 93.2347L652.985 91.9653C653.706 90.2172 654.708 88.8229 655.979 87.7821C657.257 86.7278 658.687 85.9713 660.269 85.5135C661.852 85.0418 663.452 84.8062 665.075 84.8062C666.3 84.8062 667.566 84.9656 668.884 85.285C670.215 85.6038 671.451 86.1588 672.588 86.9494C673.725 87.7265 674.651 88.8159 675.36 90.2172C676.063 91.6043 676.421 93.3666 676.421 95.5033V117.209H672.717V112.152H672.483C672.043 113.096 671.381 114.011 670.508 114.899C669.634 115.787 668.538 116.515 667.22 117.084C665.901 117.654 664.354 117.938 662.578 117.938ZM663.076 114.546C665.051 114.546 666.757 114.109 668.199 113.234C669.64 112.36 670.754 111.202 671.527 109.759C672.318 108.302 672.717 106.7 672.717 104.952V100.331C672.436 100.595 671.973 100.831 671.322 101.039C670.683 101.247 669.939 101.434 669.095 101.601C668.263 101.753 667.431 101.885 666.599 101.996C665.761 102.107 665.016 102.204 664.348 102.287C662.543 102.509 661.002 102.856 659.73 103.328C658.453 103.8 657.474 104.452 656.794 105.284C656.114 106.103 655.774 107.157 655.774 108.448C655.774 110.39 656.466 111.896 657.855 112.964C659.244 114.018 660.984 114.546 663.076 114.546ZM719.466 112.027L731.474 85.2434H735.078L720.943 117.209H717.989L704.024 85.2434H707.563L719.466 112.027ZM706.462 85.2434V117.209H702.758V85.2434H706.462ZM732.476 117.209V85.2434H736.18V117.209H732.476ZM754.951 117.938C753.023 117.938 751.259 117.563 749.665 116.814C748.071 116.051 746.799 114.955 745.856 113.525C744.912 112.083 744.443 110.334 744.443 108.281C744.443 106.7 744.736 105.368 745.334 104.285C745.932 103.203 746.776 102.316 747.872 101.622C748.967 100.928 750.268 100.38 751.769 99.9778C753.263 99.5751 754.916 99.2628 756.721 99.0413C758.508 98.8191 760.02 98.6246 761.257 98.4581C762.505 98.2917 763.455 98.028 764.105 97.6676C764.761 97.3066 765.084 96.724 765.084 95.9194V95.1698C765.084 92.9921 764.433 91.2785 763.126 90.0296C761.837 88.7673 759.979 88.1361 757.553 88.1361C755.25 88.1361 753.369 88.6424 751.909 89.6551C750.468 90.6678 749.454 91.861 748.874 93.2347L745.357 91.9653C746.078 90.2172 747.075 88.8229 748.352 87.7821C749.63 86.7278 751.06 85.9713 752.642 85.5135C754.224 85.0418 755.824 84.8062 757.448 84.8062C758.667 84.8062 759.938 84.9656 761.257 85.285C762.587 85.6038 763.824 86.1588 764.961 86.9494C766.098 87.7265 767.024 88.8159 767.727 90.2172C768.436 91.6043 768.788 93.3666 768.788 95.5033V117.209H765.084V112.152H764.855C764.41 113.096 763.753 114.011 762.88 114.899C762.007 115.787 760.911 116.515 759.593 117.084C758.274 117.654 756.727 117.938 754.951 117.938ZM755.449 114.546C757.418 114.546 759.124 114.109 760.571 113.234C762.013 112.36 763.121 111.202 763.9 109.759C764.691 108.302 765.084 106.7 765.084 104.952V100.331C764.808 100.595 764.345 100.831 763.689 101.039C763.05 101.247 762.312 101.434 761.462 101.601C760.63 101.753 759.798 101.885 758.965 101.996C758.133 102.107 757.383 102.204 756.721 102.287C754.916 102.509 753.375 102.856 752.097 103.328C750.825 103.8 749.847 104.452 749.167 105.284C748.487 106.103 748.147 107.157 748.147 108.448C748.147 110.39 748.839 111.896 750.227 112.964C751.611 114.018 753.357 114.546 755.449 114.546ZM791.134 117.875C788.274 117.875 785.783 117.161 783.661 115.732C781.552 114.302 779.911 112.346 778.75 109.863C777.584 107.38 776.998 104.549 776.998 101.372C776.998 98.1669 777.59 95.3158 778.768 92.8186C779.963 90.3209 781.61 88.3647 783.72 86.9494C785.83 85.5206 788.279 84.8062 791.069 84.8062C793.202 84.8062 795.142 85.2223 796.877 86.0545C798.612 86.8732 800.036 88.0318 801.161 89.5303C802.298 91.0148 803.013 92.7489 803.306 94.7332H799.561C799.168 92.9294 798.236 91.3892 796.748 90.1128C795.277 88.823 793.407 88.1777 791.134 88.1777C789.088 88.1777 787.289 88.7327 785.718 89.8427C784.154 90.9386 782.923 92.4717 782.038 94.442C781.165 96.3982 780.725 98.6662 780.725 101.247C780.725 103.842 781.153 106.138 782.015 108.136C782.876 110.119 784.083 111.673 785.636 112.798C787.207 113.921 789.035 114.483 791.134 114.483C792.546 114.483 793.835 114.219 795.001 113.692C796.179 113.151 797.164 112.388 797.955 111.403C798.764 110.418 799.303 109.245 799.578 107.886H803.323C803.048 109.815 802.362 111.535 801.266 113.047C800.182 114.546 798.776 115.725 797.041 116.585C795.318 117.445 793.349 117.875 791.134 117.875ZM808.621 88.7391V85.2434H833.598V88.7391H823.026V117.209H819.322V88.7391H808.621ZM852.692 117.875C849.709 117.875 847.124 117.182 844.95 115.794C842.77 114.393 841.082 112.458 839.893 109.988C838.715 107.504 838.123 104.646 838.123 101.414C838.123 98.1944 838.715 95.3369 839.893 92.8391C841.082 90.3279 842.729 88.3647 844.821 86.9494C846.931 85.5206 849.369 84.8062 852.129 84.8062C853.864 84.8062 855.534 85.125 857.146 85.7632C858.752 86.3879 860.199 87.352 861.471 88.6559C862.766 89.9464 863.786 91.5768 864.53 93.5471C865.28 95.5033 865.655 97.8199 865.655 100.498V102.329H840.684V99.0618H861.869C861.869 97.0083 861.453 95.1634 860.621 93.526C859.801 91.8751 858.658 90.5705 857.187 89.6135C855.728 88.6559 854.046 88.1777 852.129 88.1777C850.102 88.1777 848.32 88.7186 846.779 89.8011C845.237 90.8829 844.03 92.3123 843.157 94.088C842.301 95.8637 841.862 97.8065 841.85 99.9151V101.871C841.85 104.411 842.284 106.63 843.157 108.531C844.048 110.418 845.302 111.882 846.925 112.922C848.548 113.963 850.471 114.483 852.692 114.483C854.204 114.483 855.528 114.247 856.665 113.776C857.82 113.304 858.781 112.673 859.56 111.882C860.352 111.077 860.943 110.196 861.348 109.238L864.864 110.383C864.378 111.729 863.581 112.971 862.473 114.109C861.377 115.246 860 116.162 858.353 116.855C856.712 117.535 854.825 117.875 852.692 117.875ZM873.819 129.197V85.2434H877.417V91.3406H877.857C878.302 90.3836 878.912 89.4055 879.685 88.4063C880.465 87.3936 881.49 86.5403 882.768 85.8464C884.057 85.1531 885.68 84.8062 887.638 84.8062C890.275 84.8062 892.578 85.5001 894.547 86.8872C896.534 88.2609 898.069 90.189 899.165 92.6727C900.279 95.1423 900.83 98.0215 900.83 101.309C900.83 104.612 900.279 107.504 899.165 109.988C898.069 112.471 896.534 114.407 894.547 115.794C892.578 117.182 890.287 117.875 887.679 117.875C885.751 117.875 884.133 117.529 882.832 116.835C881.543 116.141 880.494 115.288 879.685 114.275C878.9 113.248 878.285 112.249 877.857 111.278H877.523V129.197H873.819ZM877.482 101.247C877.482 103.828 877.863 106.117 878.624 108.115C879.404 110.099 880.511 111.659 881.959 112.798C883.412 113.921 885.176 114.483 887.245 114.483C889.367 114.483 891.154 113.9 892.613 112.735C894.084 111.556 895.198 109.967 895.96 107.969C896.739 105.971 897.126 103.73 897.126 101.247C897.126 98.791 896.745 96.5781 895.983 94.6084C895.233 92.6381 894.125 91.0775 892.654 89.9259C891.183 88.7602 889.378 88.1777 887.245 88.1777C885.159 88.1777 883.395 88.7391 881.936 89.8632C880.476 90.9732 879.369 92.5133 878.607 94.4836C877.857 96.4398 877.482 98.6943 877.482 101.247ZM921.382 117.875C918.622 117.875 916.178 117.175 914.057 115.773C911.947 114.372 910.3 112.437 909.105 109.967C907.909 107.483 907.317 104.619 907.317 101.372C907.317 98.0977 907.909 95.2185 909.105 92.7354C910.3 90.2377 911.947 88.2955 914.057 86.9078C916.178 85.5065 918.622 84.8062 921.382 84.8062C924.143 84.8062 926.581 85.5065 928.69 86.9078C930.794 88.3096 932.447 90.2517 933.642 92.7354C934.85 95.2185 935.453 98.0977 935.453 101.372C935.453 104.619 934.856 107.483 933.66 109.967C932.47 112.437 930.812 114.372 928.69 115.773C926.581 117.175 924.143 117.875 921.382 117.875ZM921.382 114.483C923.603 114.483 925.485 113.886 927.026 112.693C928.561 111.5 929.728 109.911 930.519 107.927C931.322 105.944 931.726 103.758 931.726 101.372C931.726 98.9856 931.322 96.7932 930.519 94.7954C929.728 92.7975 928.561 91.1953 927.026 89.988C925.485 88.7808 923.603 88.1777 921.382 88.1777C919.179 88.1777 917.298 88.7808 915.745 89.988C914.203 91.1953 913.031 92.7975 912.228 94.7954C911.437 96.7932 911.039 98.9856 911.039 101.372C911.039 103.758 911.437 105.944 912.228 107.927C913.031 109.911 914.203 111.5 915.745 112.693C917.286 113.886 919.161 114.483 921.382 114.483ZM943.582 117.209V85.2434H956.176C959.575 85.2434 962.253 85.9783 964.211 87.4493C966.18 88.9196 967.164 90.904 967.164 93.4011C967.164 95.3017 966.613 96.8213 965.518 97.9588C964.422 99.0963 962.951 99.901 961.105 100.373C962.341 100.581 963.484 101.032 964.539 101.726C965.611 102.419 966.479 103.335 967.141 104.473C967.809 105.61 968.143 106.97 968.143 108.552C968.143 110.217 967.727 111.701 966.895 113.006C966.062 114.31 964.89 115.336 963.373 116.085C961.861 116.835 960.073 117.209 958.004 117.209H943.582ZM947.122 113.776H958.004C959.962 113.776 961.509 113.276 962.646 112.277C963.783 111.264 964.351 109.918 964.351 108.24C964.351 106.45 963.812 105.021 962.728 103.952C961.661 102.87 960.225 102.329 958.42 102.329H947.122V113.776ZM947.122 99.0413H956.405C957.846 99.0413 959.095 98.8191 960.149 98.3749C961.204 97.9313 962.013 97.3066 962.587 96.5019C963.168 95.6832 963.455 94.7262 963.437 93.6303C963.437 92.062 962.798 90.8483 961.521 89.988C960.249 89.1142 958.462 88.677 956.176 88.677H947.122V99.0413Z" fill="#090909"/>
</g>
<defs>
<clipPath id="clip0_209_16519">
<rect width="1166.23" height="252" fill="white"/>
</clipPath>
</defs>
</svg>
