<svg width="1167" height="252" fill="none" xmlns="http://www.w3.org/2000/svg"><g clip-path="url(#clip0_209_16519)"><path d="M5.723 5.86h16.523l95.856 217.942h1.702L215.66 5.86h16.523v238.942h-14.579V40.512h-1.458l-90.025 204.29h-14.336L21.76 40.512h-1.458v204.29H5.723V5.86z" fill="#000"/><path d="M217.924 5.86h14.977v212.691h1.449L392.204 5.861h14.734v238.941h-15.097V32.345h-1.449L232.78 244.802h-14.856V5.86zm240.995 206.237v34.043h-3.108v-34.043h3.108zm11.395 18.085v15.958h-2.959v-25.532h2.875v4.006h.266c.599-1.308 1.529-2.355 2.793-3.142 1.275-.798 2.848-1.196 4.721-1.196 1.717 0 3.225.359 4.521 1.08 1.307.709 2.321 1.756 3.042 3.142.731 1.385 1.097 3.086 1.097 5.103v16.539h-2.959v-16.356c0-2.095-.587-3.752-1.762-4.971-1.163-1.219-2.726-1.828-4.687-1.828-1.341 0-2.533.288-3.574.864-1.042.576-1.867 1.407-2.477 2.493-.598 1.075-.897 2.355-.897 3.84zm34.204-9.574v2.576h-12.184v-2.576h12.184zm-8.377-6.117h2.975v24.983c0 1.064.183 1.901.549 2.51.365.598.842 1.025 1.429 1.28a4.843 4.843 0 001.878.366c.388 0 .72-.023.998-.067.276-.055.52-.11.731-.166l.631 2.676a6.953 6.953 0 01-1.063.299c-.421.1-.942.15-1.563.15a7.268 7.268 0 01-3.142-.715 6.138 6.138 0 01-2.459-2.128c-.643-.941-.964-2.111-.964-3.506v-25.682zm25.145 32.181c-2.383 0-4.444-.555-6.184-1.663-1.74-1.119-3.086-2.665-4.039-4.637-.942-1.984-1.413-4.267-1.413-6.849 0-2.571.471-4.853 1.413-6.848.953-2.006 2.266-3.574 3.94-4.704 1.684-1.142 3.628-1.712 5.834-1.712 1.385 0 2.72.255 4.006.764 1.285.499 2.438 1.269 3.457 2.311 1.031 1.031 1.845 2.333 2.444 3.906.598 1.563.897 3.413.897 5.552v1.463h-19.947v-2.61h16.922c0-1.64-.332-3.114-.998-4.421-.653-1.319-1.567-2.361-2.742-3.126-1.164-.764-2.51-1.146-4.039-1.146-1.618 0-3.042.432-4.272 1.296-1.23.864-2.194 2.006-2.892 3.424-.688 1.419-1.036 2.97-1.047 4.655v1.562c0 2.028.348 3.801 1.047 5.319.709 1.507 1.712 2.676 3.008 3.507 1.297.831 2.832 1.247 4.605 1.247 1.207 0 2.266-.188 3.174-.565.92-.377 1.69-.881 2.311-1.513a6.704 6.704 0 001.429-2.111l2.81.915c-.388 1.074-1.025 2.066-1.912 2.975-.875.908-1.972 1.64-3.291 2.194-1.308.543-2.815.815-4.521.815zm16.875-.532v-25.532h2.876v3.923h.216c.51-1.286 1.396-2.322 2.66-3.108 1.274-.799 2.714-1.197 4.321-1.197.244 0 .515.005.815.016.299.011.548.023.748.034v3.008a29.008 29.008 0 00-.698-.1 8.27 8.27 0 00-1.081-.066c-1.33 0-2.515.282-3.557.847a6.287 6.287 0 00-2.443 2.311c-.599.987-.898 2.111-.898 3.375v16.489h-2.959zm16.718 0v-25.532h2.975v25.532h-2.975zm1.512-29.92a2.19 2.19 0 01-1.562-.615 2.04 2.04 0 01-.648-1.513c0-.588.216-1.086.648-1.496a2.16 2.16 0 011.562-.632c.61 0 1.131.211 1.563.632.432.41.649.908.649 1.496s-.217 1.091-.649 1.513c-.432.41-.953.615-1.563.615zm19.212 30.452c-2.206 0-4.156-.56-5.851-1.679-1.685-1.12-3.003-2.666-3.956-4.638-.953-1.983-1.43-4.272-1.43-6.865 0-2.615.477-4.915 1.43-6.898.953-1.995 2.271-3.546 3.956-4.654 1.695-1.12 3.645-1.679 5.851-1.679 2.205 0 4.15.559 5.834 1.679 1.685 1.119 3.003 2.67 3.956 4.654.964 1.983 1.445 4.283 1.445 6.898 0 2.593-.475 4.882-1.428 6.865-.953 1.972-2.277 3.518-3.973 4.638-1.684 1.119-3.629 1.679-5.834 1.679zm0-2.71c1.773 0 3.275-.477 4.505-1.429 1.23-.953 2.16-2.222 2.792-3.807.642-1.585.964-3.33.964-5.236 0-1.906-.322-3.657-.964-5.252-.632-1.596-1.562-2.876-2.792-3.84-1.23-.964-2.732-1.446-4.505-1.446-1.762 0-3.263.482-4.505 1.446-1.23.964-2.166 2.244-2.809 3.84-.631 1.595-.947 3.346-.947 5.252 0 1.906.316 3.651.947 5.236.643 1.585 1.579 2.854 2.809 3.807 1.23.952 2.732 1.429 4.505 1.429zm17.734 2.178v-25.532h2.872v3.923h.217c.509-1.286 1.394-2.322 2.66-3.108 1.272-.799 2.714-1.197 4.319-1.197.246 0 .516.005.815.016.299.011.551.023.75.034v3.008a28.71 28.71 0 00-.697-.1 8.26 8.26 0 00-1.079-.066c-1.33 0-2.52.282-3.557.847a6.29 6.29 0 00-2.444 2.311c-.603.987-.902 2.111-.902 3.375v16.489h-2.954zm30.463-34.043h3.592l12.348 29.654h.299l12.348-29.654h3.593v34.043h-2.925v-27.477h-.269l-11.481 27.477h-2.831l-11.486-27.477h-.264v27.477H623.8v-34.043zm40.648 34.043v-25.532h2.977v25.532h-2.977zm1.512-29.92c-.61 0-1.131-.205-1.559-.615-.434-.422-.65-.925-.65-1.513 0-.588.216-1.086.65-1.496a2.143 2.143 0 011.559-.632c.609 0 1.131.211 1.565.632.433.41.644.908.644 1.496s-.211 1.091-.644 1.513c-.434.41-.956.615-1.565.615zm12.248 13.962v15.958h-2.959v-25.532h2.877v4.006h.264c.598-1.308 1.53-2.355 2.795-3.142 1.272-.798 2.849-1.196 4.718-1.196 1.717 0 3.223.359 4.524 1.08 1.307.709 2.321 1.756 3.042 3.142.727 1.385 1.096 3.086 1.096 5.103v16.539h-2.96v-16.356c0-2.095-.586-3.752-1.764-4.971-1.16-1.219-2.725-1.828-4.688-1.828-1.336 0-2.532.288-3.569.864-1.043.576-1.87 1.407-2.479 2.493-.598 1.075-.897 2.355-.897 3.84zm24.181 15.958v-25.532h2.977v25.532h-2.977zm1.512-29.92c-.61 0-1.131-.205-1.559-.615-.434-.422-.651-.925-.651-1.513 0-.588.217-1.086.651-1.496a2.143 2.143 0 011.559-.632c.609 0 1.131.211 1.564.632.428.41.645.908.645 1.496s-.217 1.091-.645 1.513c-.433.41-.955.615-1.564.615zm9.288 29.92v-25.532h2.878v3.923h.264a6.268 6.268 0 012.543-3.108c1.196-.765 2.631-1.147 4.308-1.147 1.758 0 3.205.415 4.336 1.246 1.143.82 1.993 1.951 2.561 3.391h.217a7.081 7.081 0 012.807-3.374c1.307-.843 2.889-1.263 4.753-1.263 2.374 0 4.243.747 5.62 2.244 1.372 1.485 2.057 3.657 2.057 6.515v17.105h-2.953v-17.105c0-2.016-.516-3.529-1.548-4.537-1.031-1.009-2.391-1.513-4.073-1.513-1.951 0-3.451.598-4.506 1.795-1.049 1.197-1.577 2.715-1.577 4.555v16.805h-3.024v-17.371c0-1.728-.486-3.125-1.447-4.188-.967-1.064-2.321-1.596-4.073-1.596-1.178 0-2.233.288-3.177.864-.931.576-1.664 1.38-2.209 2.411-.533 1.019-.797 2.193-.797 3.524v16.356h-2.96zm47.312.582c-1.541 0-2.948-.3-4.225-.898-1.272-.61-2.286-1.485-3.042-2.626-.75-1.153-1.131-2.549-1.131-4.189 0-1.263.24-2.328.715-3.192a5.854 5.854 0 012.028-2.127c.879-.555 1.916-.992 3.111-1.314a28.887 28.887 0 013.956-.747c1.43-.178 2.638-.333 3.622-.466.996-.133 1.758-.344 2.28-.632.521-.288.779-.753.779-1.396v-.598c0-1.74-.521-3.109-1.559-4.106-1.031-1.008-2.52-1.513-4.459-1.513-1.841 0-3.341.405-4.501 1.214-1.155.809-1.964 1.762-2.427 2.859l-2.813-1.014c.581-1.396 1.378-2.51 2.397-3.341a9.433 9.433 0 013.423-1.812 13.37 13.37 0 013.838-.565c.979 0 1.993.127 3.042.382a8.666 8.666 0 012.96 1.33c.908.621 1.646 1.49 2.209 2.61.568 1.108.85 2.515.85 4.222v17.337h-2.96v-4.039h-.181c-.358.753-.879 1.485-1.583 2.194-.697.709-1.57 1.291-2.625 1.745-1.049.454-2.286.682-3.704.682zm.398-2.71c1.571 0 2.937-.349 4.091-1.047 1.149-.699 2.04-1.624 2.655-2.776.633-1.163.949-2.443.949-3.84v-3.69c-.222.211-.592.399-1.113.565a15.45 15.45 0 01-1.776.449c-.668.122-1.33.227-1.998.316-.663.089-1.26.166-1.794.233-1.441.177-2.672.454-3.692.831-1.02.377-1.799.897-2.344 1.562-.539.654-.815 1.496-.815 2.527 0 1.551.557 2.753 1.665 3.607 1.107.842 2.496 1.263 4.172 1.263zm21.485-31.915v34.043h-2.96v-34.043h2.96zm7.859 34.043v-25.532h2.977v25.532h-2.977zm1.518-29.92c-.61 0-1.131-.205-1.565-.615-.434-.422-.651-.925-.651-1.513 0-.588.217-1.086.651-1.496a2.167 2.167 0 011.565-.632c.609 0 1.125.211 1.559.632.433.41.65.908.65 1.496s-.217 1.091-.65 1.513c-.434.41-.95.615-1.559.615zm26.436 9.989l-2.707.765a7.103 7.103 0 00-1.131-2.077c-.487-.621-1.126-1.114-1.911-1.48-.773-.366-1.74-.549-2.889-.549-1.729 0-3.147.411-4.261 1.23-1.107.821-1.658 1.879-1.658 3.176 0 1.097.375 1.989 1.131 2.676.762.676 1.94 1.213 3.522 1.612l3.856.947c2.139.521 3.739 1.347 4.806 2.477 1.072 1.131 1.611 2.549 1.611 4.255 0 1.441-.398 2.721-1.195 3.84-.803 1.119-1.917 2-3.341 2.643-1.424.632-3.065.948-4.94.948-2.491 0-4.548-.56-6.165-1.679-1.618-1.131-2.655-2.759-3.112-4.887l2.842-.698c.369 1.518 1.084 2.664 2.145 3.44 1.079.776 2.491 1.164 4.243 1.164 1.958 0 3.528-.437 4.7-1.313 1.178-.887 1.764-1.995 1.764-3.325 0-1.03-.346-1.894-1.031-2.593-.686-.709-1.729-1.229-3.124-1.562l-4.172-.997c-2.216-.532-3.857-1.374-4.923-2.527-1.061-1.152-1.594-2.582-1.594-4.288 0-1.408.381-2.643 1.148-3.707.762-1.075 1.817-1.918 3.159-2.527 1.342-.61 2.866-.914 4.589-.914 2.338 0 4.202.532 5.597 1.595 1.412 1.054 2.426 2.505 3.041 4.355zm16.902-5.601v2.576h-12.184v-2.576h12.184zm-8.375-6.117h2.971v24.983c0 1.064.188 1.901.551 2.51.364.598.844 1.025 1.43 1.28a4.837 4.837 0 001.876.366 6.52 6.52 0 001.002-.067c.275-.055.521-.11.726-.166l.633 2.676a6.84 6.84 0 01-1.06.299c-.422.1-.944.15-1.565.15a7.267 7.267 0 01-3.141-.715 6.166 6.166 0 01-2.462-2.128c-.639-.941-.961-2.111-.961-3.506v-25.682zm31.793 11.718l-2.707.765a7.245 7.245 0 00-1.131-2.077c-.487-.621-1.126-1.114-1.911-1.48-.779-.366-1.74-.549-2.895-.549-1.729 0-3.147.411-4.255 1.23-1.107.821-1.664 1.879-1.664 3.176 0 1.097.381 1.989 1.131 2.676.768.676 1.94 1.213 3.522 1.612l3.862.947c2.133.521 3.739 1.347 4.8 2.477 1.078 1.131 1.612 2.549 1.612 4.255 0 1.441-.399 2.721-1.196 3.84-.797 1.119-1.91 2-3.34 2.643-1.419.632-3.065.948-4.935.948-2.497 0-4.554-.56-6.171-1.679-1.617-1.131-2.655-2.759-3.106-4.887l2.842-.698c.364 1.518 1.079 2.664 2.145 3.44 1.073.776 2.485 1.164 4.237 1.164 1.964 0 3.528-.437 4.706-1.313 1.172-.887 1.758-1.995 1.758-3.325 0-1.03-.339-1.894-1.025-2.593-.692-.709-1.729-1.229-3.13-1.562l-4.172-.997c-2.216-.532-3.857-1.374-4.917-2.527-1.067-1.152-1.594-2.582-1.594-4.288 0-1.408.381-2.643 1.142-3.707.768-1.075 1.817-1.918 3.159-2.527 1.342-.61 2.872-.914 4.589-.914 2.338 0 4.208.532 5.603 1.595 1.406 1.054 2.42 2.505 3.041 4.355z" fill="#000"/><path d="M451.256 162.628h714.974" stroke="#000" stroke-width="2.93"/><path d="M472.858 35.841l12.008-26.784h3.6l-14.131 31.966h-2.955L457.416 9.057h3.538l11.904 26.784zM459.851 9.057v31.966h-3.705V9.057h3.705zm26.014 31.966V9.057h3.704v31.966h-3.704zm17.252-5.265l16.878-26.7h4.433v31.965h-3.704v-26.7l-16.816 26.7h-4.495V9.057h3.704v26.701zm52.674-12.445v3.496h-18.793v-3.496h18.793zM537.914 9.057v31.966h-3.705V9.057h3.705zm20.603 0v31.966h-3.704V9.057h3.704zm13.564 26.701l16.878-26.7h4.431v31.965h-3.704v-26.7l-16.814 26.7h-4.496V9.057h3.705v26.701zm47.804.083l12.008-26.784h3.598l-14.129 31.966h-2.954L604.442 9.057h3.54l11.903 26.784zM606.88 9.057v31.966h-3.709V9.057h3.709zm26.009 31.966V9.057h3.71v31.966h-3.71zm22.481.729c-1.928 0-3.692-.375-5.286-1.124-1.6-.763-2.866-1.86-3.81-3.288-.943-1.443-1.418-3.191-1.418-5.245 0-1.581.299-2.913.897-3.995.598-1.083 1.441-1.97 2.537-2.664 1.096-.694 2.397-1.242 3.892-1.645 1.5-.402 3.153-.714 4.958-.936 1.787-.222 3.299-.416 4.536-.583 1.248-.166 2.197-.43 2.848-.79.65-.361.979-.944.979-1.749v-.749c0-2.178-.651-3.892-1.958-5.14-1.289-1.263-3.147-1.894-5.573-1.894-2.303 0-4.185.506-5.644 1.52-1.441 1.012-2.455 2.205-3.036 3.579l-3.516-1.27c.721-1.748 1.717-3.142 2.995-4.183a11.866 11.866 0 014.284-2.268 16.765 16.765 0 014.811-.708c1.219 0 2.491.16 3.81.479 1.33.319 2.567.874 3.703 1.665 1.137.777 2.058 1.866 2.767 3.267.709 1.387 1.06 3.15 1.06 5.286v21.706h-3.703v-5.057h-.229c-.445.944-1.102 1.86-1.975 2.747-.879.888-1.975 1.617-3.288 2.185-1.318.57-2.865.854-4.641.854zm.498-3.393c1.969 0 3.674-.437 5.116-1.31 1.448-.875 2.555-2.033 3.335-3.476.791-1.457 1.184-3.06 1.184-4.808v-4.62c-.276.264-.745.5-1.395.708-.639.208-1.377.395-2.227.562-.832.152-1.665.284-2.497.395-.832.111-1.582.208-2.244.292-1.805.222-3.347.568-4.624 1.04-1.278.472-2.257 1.124-2.936 1.956-.68.819-1.02 1.873-1.02 3.164 0 1.942.697 3.447 2.086 4.516 1.383 1.054 3.124 1.581 5.222 1.581zm20.049 2.664v-3.496h1.002c1.137 0 2.051-.208 2.748-.624.704-.43 1.254-1.152 1.641-2.165.387-1.013.68-2.393.873-4.141.194-1.748.346-3.94.458-6.577l.691-14.963h20.312v31.966h-3.727v-28.47h-13.069l-.603 12.716c-.129 2.595-.334 4.877-.627 6.847-.276 1.97-.733 3.614-1.372 4.932-.627 1.318-1.5 2.31-2.625 2.976-1.108.666-2.567 1-4.366 1h-1.336zm41.246-5.265l16.878-26.7h4.43v31.965h-3.704v-26.7l-16.813 26.7h-4.495V9.057h3.704v26.701zm43.578 5.931c-2.86 0-5.351-.714-7.472-2.143-2.11-1.43-3.745-3.386-4.911-5.87-1.166-2.483-1.747-5.313-1.747-8.49 0-3.205.586-6.056 1.77-8.553 1.19-2.498 2.843-4.454 4.952-5.87 2.11-1.428 4.554-2.143 7.344-2.143 2.139 0 4.073.416 5.807 1.249a11.307 11.307 0 014.29 3.475c1.137 1.485 1.852 3.22 2.139 5.203h-3.745c-.387-1.803-1.324-3.344-2.807-4.62-1.471-1.29-3.346-1.935-5.62-1.935-2.039 0-3.844.554-5.409 1.664-1.571 1.096-2.796 2.63-3.686 4.6-.874 1.956-1.313 4.224-1.313 6.805 0 2.595.433 4.89 1.295 6.889.856 1.984 2.063 3.537 3.616 4.661 1.57 1.124 3.399 1.686 5.497 1.686 1.412 0 2.707-.264 3.868-.79a7.996 7.996 0 002.959-2.29c.803-.985 1.342-2.157 1.624-3.517h3.745c-.276 1.928-.967 3.649-2.063 5.161-1.079 1.498-2.491 2.678-4.226 3.538-1.717.86-3.686 1.29-5.907 1.29zm17.493-29.136V9.057h24.972v3.496h-10.572v28.47h-3.704v-28.47h-10.696zm35.925 8.845h9.365c3.593 0 6.365.874 8.322 2.622 1.957 1.749 2.936 4.114 2.936 7.097 0 1.984-.445 3.718-1.33 5.203-.873 1.484-2.151 2.643-3.833 3.475-1.676.819-3.71 1.228-6.095 1.228h-12.448V9.057h3.728v28.47h8.72c2.262 0 4.079-.541 5.45-1.623 1.389-1.083 2.081-2.623 2.081-4.62 0-2.04-.692-3.615-2.081-4.725-1.371-1.11-3.188-1.665-5.45-1.665h-9.365v-3.496zm26.015 19.625V9.057h3.704v31.966h-3.704zm33.744-5.265l16.878-26.7h4.431v31.965h-3.704v-26.7l-16.814 26.7h-4.495V9.057h3.704v26.701zm52.674-12.445v3.496h-18.794v-3.496h18.794zm-17.88-14.256v31.966h-3.704V9.057h3.704zm20.605 0v31.966h-3.704V9.057h3.704zm5.386 3.496V9.057h24.971v3.496h-10.572v28.47h-3.704v-28.47h-10.695zm44.065 29.136c-2.983 0-5.562-.693-7.742-2.08-2.174-1.402-3.862-3.338-5.057-5.807-1.178-2.484-1.764-5.342-1.764-8.575 0-3.218.586-6.076 1.764-8.574 1.195-2.51 2.842-4.474 4.934-5.89 2.11-1.428 4.542-2.143 7.308-2.143 1.729 0 3.405.32 5.011.957 1.611.625 3.053 1.589 4.331 2.893 1.289 1.29 2.309 2.92 3.059 4.89.75 1.957 1.125 4.274 1.125 6.952v1.831H966.76v-3.267h21.185c0-2.053-.416-3.899-1.248-5.536-.814-1.651-1.963-2.955-3.434-3.912-1.454-.958-3.141-1.437-5.052-1.437-2.028 0-3.809.542-5.351 1.624-1.541 1.082-2.748 2.511-3.621 4.287-.862 1.776-1.295 3.718-1.313 5.827v1.956c0 2.54.44 4.76 1.313 6.66.891 1.887 2.145 3.35 3.768 4.391 1.623 1.04 3.546 1.561 5.761 1.561 1.512 0 2.842-.236 3.979-.708 1.149-.471 2.116-1.103 2.889-1.893.791-.805 1.389-1.686 1.794-2.643l3.516 1.144c-.487 1.346-1.284 2.588-2.397 3.725-1.096 1.138-2.467 2.054-4.12 2.748-1.635.68-3.522 1.02-5.661 1.02zm21.133 11.322V9.057h3.599v6.098h.44c.44-.957 1.05-1.936 1.83-2.934.78-1.013 1.8-1.867 3.08-2.56 1.29-.694 2.91-1.04 4.87-1.04 2.63 0 4.93.693 6.91 2.08 1.98 1.374 3.52 3.302 4.62 5.786 1.1 2.47 1.66 5.348 1.66 8.636 0 3.302-.56 6.195-1.66 8.679-1.1 2.483-2.64 4.419-4.62 5.806-1.98 1.388-4.26 2.081-6.87 2.081-1.93 0-3.54-.347-4.85-1.04-1.29-.694-2.34-1.547-3.14-2.56-.79-1.027-1.4-2.026-1.83-2.997h-.34v17.919h-3.699zm3.659-27.95c0 2.58.38 4.87 1.15 6.868.78 1.984 1.88 3.545 3.32 4.682 1.46 1.124 3.22 1.686 5.29 1.686 2.12 0 3.92-.583 5.37-1.748 1.47-1.18 2.59-2.768 3.35-4.766.78-1.998 1.17-4.239 1.17-6.722 0-2.456-.38-4.669-1.15-6.639-.75-1.97-1.86-3.53-3.32-4.682-1.47-1.166-3.28-1.748-5.42-1.748-2.08 0-3.85.561-5.3 1.685-1.46 1.11-2.57 2.65-3.34 4.62-.74 1.957-1.12 4.211-1.12 6.764zm34.56-3.663h9.34c3.6 0 6.37.874 8.33 2.622 1.95 1.749 2.93 4.114 2.93 7.097 0 1.984-.44 3.718-1.31 5.203-.87 1.484-2.15 2.643-3.83 3.475-1.68.819-3.72 1.228-6.12 1.228h-12.42V9.057h3.7v28.47h8.72c2.27 0 4.09-.541 5.48-1.623 1.39-1.083 2.08-2.623 2.08-4.62 0-2.04-.69-3.615-2.08-4.725-1.39-1.11-3.21-1.665-5.48-1.665h-9.34v-3.496zm41.66 20.291c-2.98 0-5.56-.693-7.74-2.08-2.18-1.402-3.86-3.338-5.05-5.807-1.18-2.484-1.77-5.342-1.77-8.575 0-3.218.59-6.076 1.77-8.574 1.19-2.51 2.83-4.474 4.92-5.89 2.11-1.428 4.55-2.143 7.31-2.143 1.74 0 3.41.32 5.02.957 1.6.625 3.05 1.589 4.32 2.893 1.3 1.29 2.32 2.92 3.06 4.89.75 1.957 1.13 4.274 1.13 6.952v1.831h-24.97v-3.267h21.18c0-2.053-.41-3.899-1.25-5.536-.82-1.651-1.96-2.955-3.43-3.912-1.46-.958-3.14-1.437-5.06-1.437-2.03 0-3.81.542-5.35 1.624-1.54 1.082-2.75 2.511-3.62 4.287-.86 1.776-1.3 3.718-1.31 5.827v1.956c0 2.54.44 4.76 1.31 6.66.89 1.887 2.14 3.35 3.77 4.391 1.62 1.04 3.54 1.561 5.76 1.561 1.52 0 2.84-.236 3.98-.708 1.15-.471 2.11-1.103 2.89-1.893.79-.805 1.39-1.686 1.79-2.643l3.52 1.144c-.49 1.346-1.29 2.588-2.39 3.725-1.1 1.138-2.48 2.054-4.12 2.748-1.65.68-3.53 1.02-5.67 1.02zm21.13 11.322V9.057h3.6v6.098h.44c.44-.957 1.05-1.936 1.83-2.934.78-1.013 1.8-1.867 3.08-2.56 1.29-.694 2.91-1.04 4.87-1.04 2.64 0 4.94.693 6.91 2.08 1.99 1.374 3.52 3.302 4.62 5.786 1.11 2.47 1.66 5.348 1.66 8.636 0 3.302-.55 6.195-1.66 8.679-1.1 2.483-2.63 4.419-4.62 5.806-1.97 1.388-4.26 2.081-6.87 2.081-1.93 0-3.54-.347-4.84-1.04-1.29-.694-2.34-1.547-3.15-2.56-.79-1.027-1.4-2.026-1.83-2.997h-.33v17.919h-3.71zm3.66-27.95c0 2.58.39 4.87 1.15 6.868.78 1.984 1.88 3.545 3.33 4.682 1.46 1.124 3.22 1.686 5.29 1.686 2.12 0 3.91-.583 5.37-1.748 1.47-1.18 2.58-2.768 3.34-4.766.78-1.998 1.17-4.239 1.17-6.722 0-2.456-.38-4.669-1.14-6.639-.75-1.97-1.86-3.53-3.33-4.682-1.47-1.166-3.28-1.748-5.41-1.748-2.09 0-3.85.561-5.31 1.685-1.46 1.11-2.57 2.65-3.33 4.62-.75 1.957-1.13 4.211-1.13 6.764zm40.41 16.69c-1.93 0-3.69-.374-5.28-1.123-1.6-.763-2.87-1.86-3.81-3.288-.95-1.443-1.42-3.191-1.42-5.245 0-1.581.3-2.913.9-3.995.59-1.083 1.44-1.97 2.53-2.664 1.1-.694 2.4-1.242 3.89-1.645 1.5-.402 3.16-.714 4.96-.936 1.79-.222 3.3-.416 4.54-.583 1.25-.166 2.2-.43 2.85-.79.65-.361.98-.944.98-1.749v-.749c0-2.178-.66-3.892-1.96-5.14-1.29-1.263-3.15-1.894-5.58-1.894-2.3 0-4.18.506-5.64 1.52-1.44 1.012-2.45 2.205-3.03 3.579l-3.52-1.27c.72-1.748 1.72-3.142 2.99-4.183a11.883 11.883 0 014.29-2.268c1.58-.472 3.19-.708 4.81-.708 1.22 0 2.49.16 3.81.479 1.33.319 2.57.874 3.7 1.665 1.14.777 2.06 1.866 2.77 3.267.71 1.387 1.06 3.15 1.06 5.286v21.706h-3.7v-5.057h-.23c-.45.944-1.11 1.86-1.98 2.747-.88.888-1.97 1.617-3.29 2.185-1.31.57-2.86.854-4.64.854zm.5-3.392c1.97 0 3.68-.437 5.12-1.31 1.44-.875 2.55-2.033 3.33-3.476.79-1.457 1.19-3.06 1.19-4.808v-4.62c-.28.264-.75.5-1.4.708-.64.208-1.38.395-2.23.562-.83.152-1.66.284-2.49.395-.84.111-1.59.208-2.25.292-1.8.222-3.34.568-4.62 1.04-1.28.472-2.26 1.124-2.94 1.956-.68.819-1.02 1.873-1.02 3.164 0 1.942.7 3.447 2.08 4.516 1.39 1.054 3.13 1.581 5.23 1.581zM479.164 73.256l1.935 2.352a6.972 6.972 0 01-3.142 1.748c-1.208.305-2.56.478-4.059.52-1.484.042-3.086.104-4.807.187-2.47.125-4.502.77-6.098 1.936-1.595 1.151-2.809 2.816-3.641 4.994-.819 2.165-1.333 4.808-1.541 7.93h.416c1.069-2.179 2.574-3.837 4.517-4.974 1.956-1.138 4.107-1.707 6.451-1.707 2.456 0 4.662.604 6.618 1.81 1.97 1.194 3.524 2.949 4.662 5.266 1.152 2.303 1.727 5.113 1.727 8.428 0 3.275-.575 6.126-1.727 8.554-1.152 2.414-2.761 4.28-4.828 5.598-2.067 1.318-4.488 1.977-7.263 1.977-2.789 0-5.231-.652-7.326-1.956-2.081-1.318-3.697-3.253-4.849-5.806-1.138-2.567-1.706-5.723-1.706-9.469v-3.35c0-7.451 1.179-13.057 3.538-16.817 2.358-3.76 5.986-5.723 10.884-5.89a76.11 76.11 0 014.308-.04c1.29.013 2.428-.05 3.413-.188.985-.153 1.824-.52 2.518-1.103zm-10.78 41.227c2.067 0 3.856-.52 5.369-1.561 1.512-1.055 2.678-2.539 3.496-4.454.833-1.914 1.249-4.155 1.249-6.722 0-2.552-.423-4.73-1.27-6.535-.832-1.803-1.998-3.183-3.496-4.14-1.499-.958-3.253-1.437-5.265-1.437-1.582 0-3.004.305-4.267.916a9.079 9.079 0 00-3.205 2.56c-.887 1.11-1.567 2.414-2.039 3.912-.472 1.499-.714 3.143-.729 4.932 0 3.871.902 6.93 2.706 9.179 1.818 2.233 4.301 3.35 7.451 3.35zm21.929 14.714V85.243h3.601v6.098h.437c.444-.957 1.054-1.935 1.831-2.935.777-1.012 1.804-1.866 3.08-2.56 1.291-.693 2.914-1.04 4.87-1.04 2.637 0 4.94.694 6.909 2.081 1.985 1.374 3.525 3.302 4.621 5.786 1.11 2.47 1.665 5.349 1.665 8.636 0 3.303-.555 6.195-1.665 8.679-1.096 2.483-2.636 4.419-4.621 5.806-1.969 1.388-4.259 2.081-6.867 2.081-1.929 0-3.545-.346-4.849-1.04-1.29-.694-2.338-1.547-3.143-2.56-.79-1.027-1.401-2.026-1.831-2.997h-.333v17.919h-3.705zm3.663-27.95c0 2.581.382 4.87 1.145 6.868.777 1.984 1.887 3.544 3.33 4.683 1.457 1.123 3.218 1.685 5.286 1.685 2.123 0 3.912-.583 5.369-1.748 1.471-1.179 2.588-2.768 3.351-4.766.777-1.998 1.165-4.239 1.165-6.722 0-2.456-.381-4.669-1.144-6.639-.75-1.97-1.86-3.53-3.33-4.682-1.471-1.166-3.274-1.748-5.411-1.748-2.081 0-3.85.561-5.307 1.685-1.457 1.11-2.567 2.65-3.33 4.62-.749 1.957-1.124 4.211-1.124 6.764zm35.182 10.697l16.878-26.7h4.433v31.965h-3.705v-26.7l-16.816 26.7h-4.495V85.243h3.705v26.701zm50.093-26.7v3.495h-15.297v28.47h-3.704V85.243h19.001zm15.053 32.694c-1.928 0-3.692-.375-5.286-1.124-1.6-.763-2.866-1.859-3.81-3.289-.944-1.442-1.415-3.191-1.415-5.244 0-1.581.298-2.913.895-3.996.596-1.082 1.441-1.969 2.536-2.663 1.096-.694 2.397-1.242 3.892-1.644 1.5-.403 3.153-.715 4.958-.937 1.787-.222 3.299-.416 4.536-.583 1.248-.166 2.197-.43 2.848-.79.656-.361.979-.944.979-1.749v-.75c0-2.177-.651-3.89-1.958-5.14-1.289-1.262-3.147-1.893-5.573-1.893-2.303 0-4.184.506-5.644 1.52-1.441 1.012-2.455 2.205-3.035 3.579l-3.518-1.27c.721-1.748 1.718-3.142 2.996-4.183a11.852 11.852 0 014.29-2.269 16.695 16.695 0 014.806-.707c1.218 0 2.49.16 3.809.479a10.9 10.9 0 013.704 1.664c1.137.778 2.057 1.867 2.766 3.268.709 1.387 1.06 3.15 1.06 5.286v21.706h-3.703v-5.057h-.229c-.445.944-1.102 1.859-1.975 2.747-.873.888-1.969 1.616-3.288 2.185-1.318.57-2.865.854-4.641.854zm.498-3.392c1.969 0 3.675-.437 5.122-1.312 1.442-.874 2.549-2.032 3.329-3.475.791-1.457 1.184-3.059 1.184-4.807v-4.621c-.276.264-.745.5-1.395.708-.639.208-1.377.395-2.227.562-.832.152-1.664.284-2.497.395-.832.111-1.582.208-2.244.291-1.805.222-3.347.569-4.624 1.041-1.278.472-2.251 1.124-2.93 1.956-.68.819-1.02 1.873-1.02 3.164 0 1.942.691 3.448 2.08 4.516 1.383 1.054 3.124 1.582 5.222 1.582zm19.404 11.758v-12.591h2.772a14.895 14.895 0 001.811-2.518c.51-.902.955-1.928 1.33-3.08.387-1.166.715-2.518.979-4.058.264-1.555.486-3.365.662-5.432l1.166-13.382h18.918v28.47h4.747v12.591h-3.704v-9.095h-24.954v9.095h-3.727zm7.038-12.591h16.896V88.739h-11.756l-.961 9.886c-.328 3.358-.803 6.285-1.412 8.782-.61 2.498-1.536 4.599-2.767 6.306zm41.334 4.225c-1.928 0-3.692-.375-5.286-1.124-1.594-.763-2.866-1.859-3.809-3.289-.944-1.442-1.412-3.191-1.412-5.244 0-1.581.298-2.913.896-3.996.592-1.082 1.442-1.969 2.538-2.663 1.096-.694 2.391-1.242 3.891-1.644 1.495-.403 3.147-.715 4.952-.937 1.788-.222 3.3-.416 4.536-.583 1.249-.166 2.198-.43 2.854-.79.651-.361.979-.944.979-1.749v-.75c0-2.177-.656-3.89-1.957-5.14-1.29-1.262-3.153-1.893-5.58-1.893-2.303 0-4.184.506-5.637 1.52-1.448 1.012-2.456 2.205-3.042 3.579l-3.516-1.27c.721-1.748 1.723-3.142 2.994-4.183a11.852 11.852 0 014.29-2.269 16.736 16.736 0 014.806-.707c1.225 0 2.491.16 3.809.479a10.89 10.89 0 013.704 1.664c1.137.778 2.063 1.867 2.772 3.268.703 1.387 1.061 3.15 1.061 5.286v21.706h-3.704v-5.057h-.234c-.44.944-1.102 1.859-1.975 2.747-.874.888-1.97 1.616-3.288 2.185-1.319.57-2.866.854-4.642.854zm.498-3.392c1.975 0 3.681-.437 5.123-1.312 1.441-.874 2.555-2.032 3.328-3.475.791-1.457 1.19-3.059 1.19-4.807v-4.621c-.281.264-.744.5-1.395.708a19.5 19.5 0 01-2.227.562c-.832.152-1.664.284-2.496.395-.838.111-1.583.208-2.251.291-1.805.222-3.346.569-4.618 1.041-1.277.472-2.256 1.124-2.936 1.956-.68.819-1.02 1.873-1.02 3.164 0 1.942.692 3.448 2.081 4.516 1.389 1.054 3.129 1.582 5.221 1.582zm56.39-2.519l12.008-26.784h3.604l-14.135 31.966h-2.954l-13.965-31.966h3.539l11.903 26.784zm-13.004-26.784v31.966h-3.704V85.243h3.704zm26.014 31.966V85.243h3.704v31.966h-3.704zm22.475.729c-1.928 0-3.692-.375-5.286-1.124-1.594-.763-2.866-1.859-3.809-3.289-.944-1.442-1.413-3.191-1.413-5.244 0-1.581.293-2.913.891-3.996.598-1.082 1.442-1.969 2.538-2.663 1.095-.694 2.396-1.242 3.897-1.644 1.494-.403 3.147-.715 4.952-.937 1.787-.222 3.299-.416 4.536-.583 1.248-.166 2.198-.43 2.848-.79.656-.361.979-.944.979-1.749v-.75c0-2.177-.651-3.89-1.958-5.14-1.289-1.262-3.147-1.893-5.573-1.893-2.303 0-4.184.506-5.644 1.52-1.441 1.012-2.455 2.205-3.035 3.579l-3.517-1.27c.721-1.748 1.718-3.142 2.995-4.183a11.852 11.852 0 014.29-2.269 16.726 16.726 0 014.806-.707c1.219 0 2.49.16 3.809.479a10.9 10.9 0 013.704 1.664c1.137.778 2.063 1.867 2.766 3.268.709 1.387 1.061 3.15 1.061 5.286v21.706h-3.704v-5.057h-.229c-.445.944-1.102 1.859-1.975 2.747-.873.888-1.969 1.616-3.287 2.185-1.319.57-2.866.854-4.642.854zm.498-3.392c1.969 0 3.675-.437 5.122-1.312 1.442-.874 2.55-2.032 3.329-3.475.791-1.457 1.184-3.059 1.184-4.807v-4.621c-.276.264-.739.5-1.395.708-.639.208-1.377.395-2.227.562-.832.152-1.664.284-2.497.395-.832.111-1.582.208-2.244.291-1.805.222-3.346.569-4.624 1.041-1.272.472-2.25 1.124-2.93 1.956-.68.819-1.02 1.873-1.02 3.164 0 1.942.692 3.448 2.08 4.516 1.384 1.054 3.13 1.582 5.222 1.582zm35.685 3.329c-2.86 0-5.351-.714-7.473-2.143-2.109-1.43-3.75-3.386-4.911-5.869-1.166-2.483-1.752-5.314-1.752-8.491 0-3.205.592-6.056 1.77-8.553 1.195-2.498 2.842-4.454 4.952-5.87 2.11-1.428 4.559-2.143 7.349-2.143 2.133 0 4.073.416 5.808 1.249a11.291 11.291 0 014.284 3.475c1.137 1.485 1.852 3.219 2.145 5.203h-3.745c-.393-1.804-1.325-3.344-2.813-4.62-1.471-1.29-3.341-1.935-5.614-1.935-2.046 0-3.845.555-5.416 1.665-1.564 1.096-2.795 2.629-3.68 4.599-.873 1.956-1.313 4.224-1.313 6.805 0 2.595.428 4.891 1.29 6.889.861 1.983 2.068 3.537 3.621 4.662 1.571 1.123 3.399 1.685 5.498 1.685 1.412 0 2.701-.264 3.867-.791a8.027 8.027 0 002.954-2.289c.809-.985 1.348-2.158 1.623-3.517h3.745c-.275 1.929-.961 3.649-2.057 5.161-1.084 1.499-2.49 2.678-4.225 3.538-1.723.86-3.692 1.29-5.907 1.29zm17.487-29.136v-3.496h24.977v3.496h-10.572v28.47h-3.704v-28.47h-10.701zm44.071 29.136c-2.983 0-5.568-.693-7.742-2.081-2.18-1.401-3.868-3.336-5.057-5.806-1.178-2.484-1.77-5.342-1.77-8.574 0-3.22.592-6.077 1.77-8.575 1.189-2.511 2.836-4.474 4.928-5.89 2.11-1.428 4.548-2.143 7.308-2.143a13.5 13.5 0 015.017.957c1.606.625 3.053 1.589 4.325 2.893 1.295 1.29 2.315 2.92 3.059 4.891.75 1.956 1.125 4.273 1.125 6.951v1.831h-24.971v-3.267h21.185c0-2.054-.416-3.899-1.248-5.536-.82-1.65-1.963-2.956-3.434-3.912-1.459-.958-3.141-1.436-5.058-1.436-2.027 0-3.809.54-5.35 1.623-1.542 1.082-2.749 2.511-3.622 4.287-.856 1.776-1.295 3.719-1.307 5.827v1.956c0 2.54.434 4.759 1.307 6.66.891 1.887 2.145 3.351 3.768 4.391 1.623 1.041 3.546 1.561 5.767 1.561 1.512 0 2.836-.236 3.973-.707 1.155-.472 2.116-1.103 2.895-1.894a8.43 8.43 0 001.788-2.644l3.516 1.145c-.486 1.346-1.283 2.588-2.391 3.726-1.096 1.137-2.473 2.053-4.12 2.746-1.641.68-3.528 1.02-5.661 1.02zm21.127 11.322V85.243h3.598v6.098h.44c.445-.957 1.055-1.935 1.828-2.935.78-1.012 1.805-1.866 3.083-2.56 1.289-.693 2.912-1.04 4.87-1.04 2.637 0 4.94.694 6.909 2.081 1.987 1.374 3.522 3.302 4.618 5.786 1.114 2.47 1.665 5.349 1.665 8.636 0 3.303-.551 6.195-1.665 8.679-1.096 2.483-2.631 4.419-4.618 5.806-1.969 1.388-4.26 2.081-6.868 2.081-1.928 0-3.546-.346-4.847-1.04-1.289-.694-2.338-1.547-3.147-2.56-.785-1.027-1.4-2.026-1.828-2.997h-.334v17.919h-3.704zm3.663-27.95c0 2.581.381 4.87 1.142 6.868.78 1.984 1.887 3.544 3.335 4.683 1.453 1.123 3.217 1.685 5.286 1.685 2.122 0 3.909-.583 5.368-1.748 1.471-1.179 2.585-2.768 3.347-4.766.779-1.998 1.166-4.239 1.166-6.722 0-2.456-.381-4.669-1.143-6.639-.75-1.97-1.858-3.53-3.329-4.682-1.471-1.166-3.276-1.748-5.409-1.748-2.086 0-3.85.561-5.309 1.685-1.46 1.11-2.567 2.65-3.329 4.62-.75 1.957-1.125 4.211-1.125 6.764zm43.9 16.628c-2.76 0-5.204-.7-7.325-2.102-2.11-1.401-3.757-3.336-4.952-5.806-1.196-2.484-1.788-5.348-1.788-8.595 0-3.274.592-6.153 1.788-8.637 1.195-2.497 2.842-4.44 4.952-5.827 2.121-1.401 4.565-2.102 7.325-2.102 2.761 0 5.199.7 7.308 2.102 2.104 1.402 3.757 3.344 4.952 5.827 1.208 2.484 1.811 5.363 1.811 8.637 0 3.247-.597 6.111-1.793 8.595-1.19 2.47-2.848 4.405-4.97 5.806-2.109 1.402-4.547 2.102-7.308 2.102zm0-3.392c2.221 0 4.103-.597 5.644-1.79 1.535-1.193 2.702-2.782 3.493-4.766.803-1.983 1.207-4.169 1.207-6.555s-.404-4.579-1.207-6.577c-.791-1.998-1.958-3.6-3.493-4.807-1.541-1.207-3.423-1.81-5.644-1.81-2.203 0-4.084.603-5.637 1.81-1.542 1.207-2.714 2.81-3.517 4.807-.791 1.998-1.189 4.19-1.189 6.577 0 2.386.398 4.572 1.189 6.555.803 1.984 1.975 3.573 3.517 4.766 1.541 1.193 3.416 1.79 5.637 1.79zm22.2 2.726V85.243h12.594c3.399 0 6.077.735 8.035 2.206 1.969 1.47 2.953 3.455 2.953 5.952 0 1.9-.551 3.42-1.646 4.558-1.096 1.137-2.567 1.942-4.413 2.414a8.855 8.855 0 013.434 1.353 8.018 8.018 0 012.602 2.747c.668 1.137 1.002 2.497 1.002 4.079 0 1.665-.416 3.149-1.248 4.454-.833 1.304-2.005 2.33-3.522 3.079-1.512.75-3.3 1.124-5.369 1.124h-14.422zm3.54-3.433h10.882c1.958 0 3.505-.5 4.642-1.499 1.137-1.013 1.705-2.359 1.705-4.037 0-1.79-.539-3.219-1.623-4.288-1.067-1.082-2.503-1.623-4.308-1.623h-11.298v11.447zm0-14.735h9.283c1.441 0 2.69-.222 3.744-.666 1.055-.444 1.864-1.068 2.438-1.873.581-.819.868-1.776.85-2.872 0-1.568-.639-2.782-1.916-3.642-1.272-.874-3.059-1.311-5.345-1.311h-9.054v10.364z" fill="#090909"/></g><defs><clipPath id="clip0_209_16519"><path fill="#fff" d="M0 0h1166.23v252H0z"/></clipPath></defs></svg>